<?xml version="1.0" encoding="UTF-8" standalone="no"?>
<!-- Created with Keyshape -->
<svg xmlns="http://www.w3.org/2000/svg" xmlns:xlink="http://www.w3.org/1999/xlink" viewBox="0 0 1600 800" style="white-space: preserve-spaces;">
    <metadata/>
    <g transform="translate(1328.62,372.5) rotate(180) scale(-1.3333,1.3333) translate(-396.474,-320.633)">
        <g>
            <path d="M596.2,0C556.112,66.474,507.697,134.96,472.37,204.17C443.584,260.613,424.051,316.59,422.338,363.02C420.692,408.793,436.016,446.152,456.974,476.85C477.805,507.355,502.53,530.609,515.615,560.704C520.52,572.009,522.821,585.362,522.444,600.008" fill="none" stroke="#bdbcbc"/>
            <path d="M579.71,0C539.059,68.988,490.381,139.49,456.81,210.65C430.529,266.397,414.742,321.69,417.162,365.97C419.627,410.585,439.324,445.3,463.416,474.39C487.168,503.01,513.527,524.91,526.38,554.92C531.724,567.432,533.304,582.888,531.303,599.997" fill="none" stroke="#bdbcbc"/>
            <path d="M564.06,0C522.212,71.776,472.936,144.36,441.12,217.48C417.156,272.619,405.151,327.18,411.592,369.32C418.246,412.685,442.189,444.805,469.482,472.23C496.073,498.977,524.101,519.474,536.733,549.363C542.45,562.926,543.036,580.465,539.11,599.998" fill="none" stroke="#bdbcbc"/>
            <path d="M549.39,0C505.731,74.787,455.531,149.54,425.49,224.55C403.652,279.165,395.426,332.93,405.761,372.98C416.638,415.01,444.735,444.549,475.231,470.323C504.622,495.147,534.302,514.263,546.705,544.025C552.721,558.509,552.07,578.106,545.997,599.996" fill="none" stroke="#bdbcbc"/>
            <path d="M535.79,0C489.751,77.971,438.294,154.98,410.04,231.77C390.137,285.95,385.678,338.83,399.751,376.89C414.847,417.507,446.974,444.546,480.669,468.657C512.758,491.601,544.101,509.296,556.272,538.918C562.536,554.208,560.422,575.831,552.034,600.003" fill="none" stroke="#bdbcbc"/>
            <path d="M523.3,0C474.385,81.27,421.36,160.63,394.87,239.06C376.732,292.895,375.951,344.84,393.646,380.96C412.889,420.124,448.933,444.753,485.804,467.182C520.497,488.286,553.469,504.566,565.421,534.025C571.884,550.021,568.141,573.634,557.339,599.997" fill="none" stroke="#bdbcbc"/>
            <path d="M511.94,0C459.739,84.626,404.84,166.41,380.09,246.35C363.549,299.919,366.356,350.86,387.534,385.16C410.851,422.82,450.659,445.16,490.664,465.904C527.869,485.202,562.428,500.082,574.16,529.374C580.778,545.992,575.25,571.544,561.974,600.007" fill="none" stroke="#bdbcbc"/>
            <path d="M501.68,0C445.878,87.988,388.84,172.27,365.78,253.57C350.689,306.942,356.975,356.84,381.478,389.4C408.749,425.553,452.221,445.654,495.268,464.763C534.863,482.327,570.969,495.812,582.483,524.937C589.221,542.103,581.796,569.536,566.037,599.998" fill="none" stroke="#bdbcbc"/>
            <path d="M492.47,0C432.852,91.317,373.44,178.13,352.01,260.67C338.242,313.907,347.85,362.73,375.548,393.65C406.633,428.296,453.608,446.3,499.628,463.77C521.328,471.987,541.605,479.549,558.461,489.034C573.349,497.435,585.147,507.255,590.389,520.736C597.224,538.38,587.813,567.634,569.593,599.995" fill="none" stroke="#bdbcbc"/>
            <path d="M484.21,0C466.208,26.87,448.125,53.748,430.747,80.85C388.798,146.291,352.355,210.53,338.82,267.61C326.254,320.763,339.042,368.49,369.777,397.87C404.523,431.035,454.864,447.028,503.737,462.907C526.612,470.343,547.829,477.181,565.351,486.134C580.687,493.999,592.755,503.433,597.863,516.777C604.767,534.847,593.322,565.851,572.695,600" fill="none" stroke="#bdbcbc"/>
            <path d="M600.88,551.35C595.448,565.981,586.535,582.619,575.402,600.002" fill="none" stroke="#bdbcbc"/>
            <path d="M477.01,0C457.146,28.873,437.292,57.704,418.345,86.774C375.413,152.669,338.581,217.544,326.274,274.314C314.808,327.423,330.603,374.063,364.225,401.994C402.47,433.699,455.993,447.823,507.615,462.138C531.602,468.821,553.727,474.932,571.861,483.41C584.334,489.24,594.642,496.142,600.876,505.314" fill="none" stroke="#bdbcbc"/>
            <path d="M600.88,560.85C594.876,573.078,586.958,586.328,577.756,599.999" fill="none" stroke="#bdbcbc"/>
            <path d="M470.61,0C448.881,30.79,427.261,61.486,406.769,92.438C362.863,158.771,325.594,224.288,314.404,280.778C303.933,333.879,322.564,379.449,358.919,406.018C400.478,436.319,457.042,448.645,511.259,461.481C536.314,467.413,559.251,472.906,577.983,480.891C586.964,484.723,594.829,489.124,600.879,494.525" fill="none" stroke="#bdbcbc"/>
            <path d="M600.88,567.02C594.926,577.52,587.772,588.626,579.79,600.003" fill="none" stroke="#bdbcbc"/>
            <path d="M464.94,0C441.362,32.621,418.008,65.086,396.01,97.822C351.158,164.577,313.421,230.712,303.248,286.942C293.688,340.057,314.96,384.597,353.897,409.882C398.568,438.849,457.997,449.48,514.667,460.899C540.715,466.133,564.423,471.027,583.707,478.55C590.067,481.038,595.875,483.81,600.882,487.022" fill="none" stroke="#bdbcbc"/>
            <path d="M600.88,571.53C595.169,580.699,588.652,590.258,581.569,599.999" fill="none" stroke="#bdbcbc"/>
            <path d="M459.93,0C434.546,34.354,409.502,68.491,386.044,102.91C340.292,170.069,302.073,236.81,292.822,292.78C284.087,345.927,307.84,389.455,349.18,413.56C396.763,441.261,458.87,450.317,517.84,460.389C544.797,464.992,569.227,469.302,589.026,476.385C593.242,477.895,597.215,479.535,600.876,481.344" fill="none" stroke="#bdbcbc"/>
            <path d="M600.88,574.96C595.468,583.086,589.486,591.476,583.103,599.996" fill="none" stroke="#bdbcbc"/>
            <path d="M455.52,0C428.392,35.98,401.725,71.684,376.878,107.68C330.274,175.21,291.581,242.52,283.17,298.26C275.187,351.456,301.216,394.041,344.799,417.04C395.086,443.542,459.689,451.141,520.779,459.952C548.581,463.961,573.681,467.716,593.942,474.41C596.334,475.198,598.649,476.029,600.874,476.909" fill="none" stroke="#bdbcbc"/>
            <path d="M600.88,578.42C595.793,585.405,590.311,592.593,584.513,600.005" fill="none" stroke="#bdbcbc"/>
            <path d="M451.67,0C422.876,37.5,394.663,74.652,368.503,112.1C321.107,179.976,281.959,247.82,274.293,303.34C270.659,329.855,274.716,354.272,285.569,373.067C297.399,393.539,316.899,408.763,340.758,420.267C393.541,445.65,460.428,451.933,523.488,459.547C552.064,463.002,577.748,466.298,598.456,472.587C599.271,472.835,600.079,473.09,600.876,473.349" fill="none" stroke="#bdbcbc"/>
            <path d="M600.88,580.39C596.081,586.752,590.976,593.283,585.622,599.998" fill="none" stroke="#bdbcbc"/>
            <path d="M448.32,0C417.963,38.899,388.302,77.387,360.915,116.18C312.796,184.363,273.204,252.7,266.226,308.02C262.896,334.512,267.579,358.743,279.12,377.221C291.776,397.431,312.219,412.227,337.083,423.255C392.144,447.604,461.113,452.661,525.963,459.21C554.467,462.089,580.089,464.848,600.885,470.49" fill="none" stroke="#bdbcbc"/>
            <path d="M600.88,581.97C596.337,587.831,591.552,593.835,586.565,599.997" fill="none" stroke="#bdbcbc"/>
            <path d="M445.43,0C413.624,40.173,382.626,79.873,354.113,119.88C305.343,188.348,265.353,257.14,258.968,312.27C255.929,338.733,261.149,362.818,273.316,380.995C286.707,400.979,307.997,415.387,333.777,425.974C390.867,449.414,461.737,453.338,528.177,458.918C555.646,461.2,580.416,463.453,600.878,468.178" fill="none" stroke="#bdbcbc"/>
            <path d="M600.88,583.26C596.565,588.714,592.05,594.291,587.366,600.004" fill="none" stroke="#bdbcbc"/>
            <path d="M442.95,0C409.83,41.312,377.621,82.095,348.094,123.19C298.745,191.905,258.402,261.1,252.538,316.06C249.738,342.508,255.456,366.439,268.165,384.366C282.202,404.155,304.271,418.173,330.847,428.402C389.754,451.001,462.277,453.981,530.147,458.669C556.701,460.512,580.738,462.325,600.875,466.309" fill="none" stroke="#bdbcbc"/>
            <path d="M600.88,584.29C596.758,589.413,592.468,594.647,588.034,600.001" fill="none" stroke="#bdbcbc"/>
            <path d="M440.86,0C406.572,42.313,373.289,84.046,342.866,126.1C293.014,195.027,252.354,264.57,246.943,319.39C244.357,345.82,250.505,369.615,263.683,387.327C278.295,406.927,301.007,420.66,328.295,430.542C388.774,452.423,462.755,454.546,531.865,458.463C557.651,459.909,581.054,461.382,600.87,464.804" fill="none" stroke="#bdbcbc"/>
            <path d="M600.88,585.12C596.92,589.979,592.814,594.938,588.582,600.004" fill="none" stroke="#bdbcbc"/>
            <path d="M439.15,0C403.853,43.174,369.642,85.713,338.44,128.58C288.163,197.687,247.227,267.54,242.204,322.22C239.803,348.634,246.313,372.311,259.886,389.843C274.989,409.28,298.256,422.752,326.14,432.351C387.965,453.607,463.18,455.009,533.34,458.279C558.469,459.46,581.344,460.645,600.88,463.607" fill="none" stroke="#bdbcbc"/>
            <path d="M600.88,585.76C597.051,590.411,593.094,595.154,589.023,599.995" fill="none" stroke="#bdbcbc"/>
            <path d="M437.76,0C401.623,43.882,366.642,87.09,334.81,130.63C284.182,199.887,243.035,269.98,238.311,324.56C236.055,350.965,242.862,374.556,256.773,391.927C272.263,411.244,296.001,424.48,324.372,433.856C387.292,454.607,463.532,455.399,534.542,458.141C559.148,459.079,581.584,460.066,600.877,462.687" fill="none" stroke="#bdbcbc"/>
            <path d="M600.88,586.25C597.152,590.745,593.306,595.328,589.356,600.004" fill="none" stroke="#bdbcbc"/>
            <path d="M436.71,0C399.91,44.437,364.321,88.173,331.98,132.23C281.085,201.603,239.744,271.89,235.28,326.39C233.145,352.784,240.172,376.309,254.343,393.554C270.145,412.772,294.235,425.854,322.994,435.034C386.779,455.374,463.794,455.739,535.484,458.031C559.679,458.824,581.782,459.644,600.881,462.004" fill="none" stroke="#bdbcbc"/>
            <path d="M600.88,586.59C597.224,590.977,593.457,595.447,589.592,600.004" fill="none" stroke="#bdbcbc"/>
            <path d="M435.96,0C398.684,44.837,362.657,88.948,329.95,133.39C278.857,202.844,237.382,273.28,233.104,327.71C231.039,354.105,238.26,377.55,252.6,394.728C268.629,413.868,292.966,426.844,322.003,435.883C386.387,455.96,463.983,455.946,536.143,457.962C560.055,458.613,581.913,459.34,600.865,461.534" fill="none" stroke="#bdbcbc"/>
            <path d="M600.88,586.79C597.267,591.112,593.547,595.514,589.733,600.001" fill="none" stroke="#bdbcbc"/>
            <path d="M435.52,0C397.955,45.078,361.663,89.414,328.74,134.08C277.533,203.585,235.995,274.1,231.804,328.49C229.8,354.875,237.099,378.307,251.558,395.423C267.718,414.523,292.22,427.403,321.417,436.378C386.184,456.261,464.107,456.08,536.557,457.909C560.291,458.509,582.004,459.172,600.874,461.258" fill="none" stroke="#bdbcbc"/>
            <g fill="none" opacity="0.2" stroke="#231f20" stroke-width="0.872">
                <path d="M0,552.73C79.7942,547.918,157.617,541.387,231.483,531.626C396.422,509.782,535.613,469.555,610.848,413.506C688.22,355.788,706.497,282.816,708.041,209.616C709.602,138.273,695.092,71.436,731.905,18.866C736.537,12.273,742.612,5.973,750.019,-0.008" transform="translate(-327.758,0) scale(1,1.08557)"/>
                <path d="M0,576.52C73.7818,570.614,145.237,562.278,211.742,548.794C333.028,524.141,431.705,478.772,479.521,418.804C529.635,355.828,532.932,279.054,526.464,202.564C520.214,128.86,504.393,60.904,532.545,8.834C534.182,5.817,536.083,2.872,538.236,0.001" transform="translate(-147.004,0) scale(1,1.04075)"/>
                <path d="M2.034,599.62C64.299,592.887,124.074,582.944,178.444,565.508C263.247,538.249,329.164,487.858,357.134,424.118C386.908,355.971,381.868,275.508,371.688,195.738C362.022,120.186,347.211,51.458,367.143,-0.002"/>
                <path d="M143.3,599.62C164.224,594.583,184.478,588.678,203.92,581.695C286.339,552.004,347.03,496.781,368.71,429.385C392.141,356.226,379.913,272.165,364.22,189.165C350.399,116.085,333.413,49.995,348.065,-0.005"/>
                <path d="M222.87,599.62C224.907,598.846,226.934,598.059,228.951,597.259C309.265,565.321,364.771,505.479,380.411,434.539C397.521,356.534,378.419,268.979,357.254,182.839C339.924,112.255,320.953,48.669,330.716,-0.001"/>
                <path d="M278.65,599.62C342.606,563.619,383.32,505.574,392.12,439.55C403.044,356.902,377.239,265.95,350.764,176.75C330.538,108.649,309.783,47.42,315.091,0.01"/>
                <path d="M321.18,599.62C371.129,561.257,400.212,505.709,403.701,444.36C408.592,357.287,376.426,263.04,344.716,170.9C329.741,127.475,315.613,87.022,307.558,49.92C303.71,32.127,301.367,15.325,301.565,0.005"/>
                <path d="M355.73,599.62C395.033,560.071,415.603,506.701,415.046,448.95C414.109,357.669,375.836,260.26,339.082,165.31C321.887,120.868,305.866,79.709,296.446,42.12C292.741,27.27,290.153,13.13,289.31,0.005"/>
                <path d="M384.74,599.62C415.692,559.558,429.792,508.134,426.065,453.28C419.505,358.023,375.498,257.59,333.849,159.97C314.532,114.578,296.654,72.766,285.996,34.72C282.599,22.601,279.991,10.969,278.522,-0.003"/>
                <path d="M409.59,599.62C433.865,559.458,442.919,509.78,436.661,457.35C424.758,358.35,375.251,255.04,328.981,154.9C307.599,108.629,288.094,66.194,276.193,27.74C273.229,18.149,270.781,8.87,269.032,-0.006"/>
                <path d="M431.14,599.62C450.014,559.613,455.073,511.511,446.772,461.14C429.823,358.64,375.138,252.61,324.472,150.13C301.168,103.038,280.106,60.033,267.052,21.2C264.616,13.939,262.485,6.857,260.744,0.002"/>
                <path d="M449.94,599.62C464.396,559.921,466.248,513.232,456.311,464.63C434.626,358.88,375.113,250.31,320.311,145.63C295.255,97.774,272.708,54.259,258.568,15.09C256.72,9.962,255.03,4.929,253.529,0.003"/>
                <path d="M466.42,599.62C477.26,560.316,476.528,514.893,465.246,467.82C439.132,359.08,375.135,248.12,316.486,141.44C289.795,92.887,265.854,48.909,250.746,9.42C249.527,6.241,248.372,3.099,247.287,-0.005"/>
                <path d="M483.53,599.62C490.793,560.952,486.037,517.055,473.524,470.72C443.314,359.23,375.229,246.08,312.984,137.56C284.784,88.378,259.657,43.967,243.578,4.22C243.008,2.806,242.451,1.398,241.907,0"/>
                <path d="M496.03,599.62C500.766,561.371,494.513,518.474,481.102,473.32C447.139,359.33,375.292,244.19,309.812,134.01C280.375,84.474,254.191,39.863,237.297,0"/>
                <path d="M506.9,599.62C509.598,561.79,502.126,519.763,487.962,475.62C450.668,359.39,375.382,242.47,306.982,130.79C277.376,82.524,251.055,38.988,233.396,-0.01"/>
                <path d="M516.25,599.62C517.282,562.188,508.772,520.916,494.054,477.64C453.738,359.44,375.494,240.91,304.474,127.93C274.847,80.778,248.403,38.212,230.11,0"/>
                <path d="M524.18,599.62C523.876,562.548,514.59,521.913,499.378,479.37C456.465,359.45,375.598,239.53,302.288,125.42C272.602,79.267,246.113,37.535,227.365,0"/>
                <path d="M530.78,599.62C529.405,562.864,519.488,522.761,503.907,480.82C458.76,359.44,375.677,238.35,300.437,123.28C270.819,77.948,244.274,36.941,225.14,-0.01"/>
                <path d="M536.11,599.62C533.908,563.131,523.482,523.456,507.622,482C460.664,359.43,375.722,237.38,298.912,121.52C269.301,76.89,242.782,36.464,223.372,-0.01"/>
                <path d="M540.22,599.62C537.405,563.337,526.621,523.989,510.531,482.91C462.129,359.41,375.821,236.59,297.731,120.15C268.193,76.048,241.659,36.09,222.038,0"/>
                <path d="M543.12,599.62C539.882,563.485,528.855,524.371,512.604,483.56C463.221,359.39,375.824,236.06,296.884,119.16C267.337,75.46,240.853,35.819,221.103,0"/>
                <path d="M544.86,599.62C541.363,563.579,530.172,524.606,513.852,483.95C463.813,359.38,375.852,235.72,296.372,118.57C266.883,75.094,240.405,35.653,220.559,0"/>
            </g>
        </g>
    </g>
</svg>
