<?xml version="1.0" encoding="UTF-8"?>
<svg viewBox="0 0 2000 600" xmlns="http://www.w3.org/2000/svg">
<path transform="translate(0 -14.114)" d="m1987.5 435.97c-15.65-5.586-36.82-16.341-52.52-26.688-26.84-17.675-51.25-39.09-87.04-76.351-12.37-12.886-31.51-32.51-42.52-43.61l-20.02-20.181-45.94-0.506c-78.41-0.863-119.69 2.345-173.67 13.497-65.84 13.605-124.79 35.023-209.6 76.16-42.11 20.427-59.44 27.194-88.82 34.683-53.4 13.62-113.07 11.657-164.02-5.395-42.66-14.28-76.02-34.98-132.61-82.299-10.707-8.953-20.119-16.278-20.914-16.278-0.796 0-2.662 0.62-4.148 1.379-4.5 2.295-27.045 9.43-38.219 12.094-23.71 5.652-52.859 9.55-86.864 11.614-24.314 1.476-76.827 0.697-107.23-1.591-27.135-2.042-69.455-1.601-89.045 0.928-68.249 8.81-117.03 28.122-183.59 72.688-45.192 30.255-84.035 43.369-132.07 44.586-24.032 0.609-42.843-1.105-68.034-6.198-51.923-10.498-99.176-32.688-140.96-66.196-16.012-12.84-41.571-38.526-55.029-55.304-19.222-23.962-45.127-65.032-44.449-70.47 0.26146-2.099 1.6135-0.244 7.1645 9.829 47.787 86.714 122.9 149.24 207.87 173.03 32.934 9.221 53.272 12.06 86.434 12.065 28.849 5e-3 40.76-1.455 62.404-7.649 11.489-3.288 31.551-10.731 30.84-11.442-0.24-0.24-2.737 0.47-5.548 1.577-2.811 1.108-10.186 3.377-16.388 5.042-32.159 8.637-68.37 9.797-107.32 3.438-83.885-13.694-158.3-56.727-217.73-125.92-21.11-24.576-47.907-63.894-47.903-70.285 0.0011874-2.128 1.3823-0.418 6.3914 7.915 35.307 58.731 82.848 107.65 135.8 139.73 52.758 31.964 113.06 49.432 170.96 49.53 23.515 0.039 36.84-1.556 57.479-6.884 12.557-3.241 32.632-10.166 36.304-12.523 1.589-1.02 1.566-1.062-0.236-0.425-43.488 15.383-82.469 18.313-131.57 9.89-60.14-10.318-114.72-34.502-166.35-73.718-32.412-24.617-64.481-57.365-90.271-92.183-13.077-17.656-18.673-26.436-18.329-28.76 0.23977-1.619 1.6963-0.023 6.2026 6.799 22.729 34.408 56.984 73.12 87.158 98.497 56.567 47.578 117.62 76.088 187.67 87.633 14.882 2.453 18.923 2.711 42.941 2.741 29.705 0.036 41.213-1.395 64.083-7.972 11.486-3.303 31.312-10.47 30.689-11.094-0.181-0.179-3.68 0.813-7.779 2.205-33.597 11.41-71.131 14.806-108.5 9.817-49.71-6.636-99.078-23.429-144.57-49.178-55.655-31.5-109.35-79.122-150.06-133.07l-7.7992-10.337-0.11148-7.413c-0.06132-4.077 0.12795-7.413 0.42061-7.413s3.2011 1.347 6.4632 2.993c13.268 6.694 27.757 10.325 48.23 12.089 11.524 0.993 18.424 0.85 48.885-1.014 53.149-3.252 68.923-3.759 122.51-3.938 64.095-0.214 100.6 1.718 140.44 7.435 46.312 6.644 71.631 15.024 95.782 31.701 19.368 13.374 38.903 22.183 73.804 33.282l13.879 4.414 17.136-16.231c21.083-19.97 29.293-27.229 42.148-37.267 22.193-17.329 45.499-30.648 66.125-37.79 38.694-13.399 75.753-12.018 129.98 4.842 103.12 32.066 178.23 40.511 266.14 29.92 16.28-1.963 31.46-4.476 57.12-9.462 51.29-9.964 95.55-14.157 149.48-14.158 64.17-1e-3 108.6 6.019 156.58 21.215 20.99 6.651 49.24 13.864 73.93 18.878l19.9 4.043 12.12-6.847c32.33-18.281 59.47-29.339 85.14-34.695 14.67-3.059 36.24-4.189 48.49-2.538 4.65 0.628 28.96 6.281 54.02 12.563 79.91 20.032 121.82 29.582 171.13 38.995 32.28 6.162 42.6 12.011 77.06 43.65 7.43 6.831 15.93 14.512 18.88 17.069 2.94 2.557 5.18 5.098 4.98 5.648-0.37 0.992-7.19-4.878-30.94-26.61-15.63-14.316-24.7-21.127-36.27-27.272-11.1-5.887-13.83-6.47-4.34-0.926 3.76 2.194 10.51 6.875 14.99 10.401 7.84 6.157 12.21 10.016 36.3 32.11 5.99 5.5 13.15 11.872 15.9 14.161 2.74 2.288 4.67 4.482 4.28 4.874-0.85 0.858-9.76-6.712-31.48-26.745-24.06-22.197-33.79-29.625-48.34-36.906-9.61-4.805-11.83-5.082-3.11-0.389 11.66 6.284 23.21 15.741 53.73 44.025 6.55 6.061 15.84 14.322 20.65 18.358 4.82 4.035 8.76 7.77 8.76 8.298 0 2.106-14.7-10.276-39.83-33.556-25.36-23.496-35.23-31.102-49.94-38.492-8.87-4.459-8.99-3.866-0.26 1.281 10.52 6.194 25.26 18.39 48.51 40.115 11 10.285 24.51 22.303 30.01 26.706 12.21 9.77 12.02 9.593 11.25 10.359-1.33 1.337-19.42-13.83-44.79-37.557-29.76-27.833-42.44-37.477-57.5-43.72-3.32-1.379-3.32-1.38 6.87 5.056 9.94 6.268 22.82 17.127 44.65 37.629 21.73 20.407 34.62 31.64 44.77 39.003 3.41 2.475 6.21 5.101 6.23 5.837 0.08 3.546-23.67-16.317-57.11-47.756-23.55-22.148-36.76-32.437-50.63-39.444-7.32-3.694-7.74-3.283-0.88 0.846 12.73 7.664 27.02 19.578 51.14 42.647 8.26 7.904 19.47 18.327 24.9 23.163 9.05 8.045 26.99 22.141 31.15 24.469 0.94 0.529 1.54 1.5 1.32 2.156-0.45 1.338-15.81-9.676-28.37-20.343-4.41-3.737-17.68-15.918-29.52-27.069-30.04-28.317-38.58-35.395-53.47-44.337-9.59-5.766-10.46-5.226-1.49 0.931 12.46 8.545 24.56 18.877 44.46 37.954 30.68 29.418 48.04 44.316 62.28 53.446 3.43 2.2 6.24 4.588 6.24 5.307 0.01 1.854-3.81-0.536-18.34-11.443-13.58-10.193-25.84-21.074-51.69-45.835-21.06-20.184-32.56-29.954-44.38-37.711-7.91-5.193-10.64-6.595-10.64-5.46 0 0.198 2.42 1.964 5.37 3.926 9.38 6.226 23.09 18.217 46.96 41.086 34 32.564 51.78 47.573 67.48 56.957 2.89 1.727 5.25 3.737 5.25 4.466 0 1.53 0.08 1.572-10.01-5.138-18.16-12.086-30.13-22.244-61.68-52.368-13.7-13.083-27.82-26.303-31.38-29.379-7.32-6.309-20.3-16.05-23.83-17.866-4.58-2.36-2.98-0.377 3.99 4.932 10.44 7.963 23.54 19.841 47.31 42.915 31.43 30.512 48.72 44.984 67.35 56.373 9.11 5.571 11.87 9.809 3 4.605-20.12-11.802-38.33-26.872-72.21-59.743-24.93-24.187-36.93-35.001-47.87-43.141-12.48-9.29-12.17-7.046 0.46 3.249 6.22 5.078 20.32 18.027 31.32 28.775 42.61 41.622 55.43 52.734 77.17 66.92 7.23 4.715 13.99 9.083 15.01 9.706 1.03 0.623 1.55 1.465 1.17 1.871-1.5 1.566-25.32-14.129-41.51-27.343-12.9-10.524-21.58-18.583-51.91-48.195-22.52-21.99-43.51-39.916-46.76-39.948-1.09-0.011 1.26 2.449 5.97 6.232 9.56 7.675 20.26 17.709 49.37 46.259 24.53 24.068 36.94 35.055 52.93 46.909 9.76 7.221 29.51 19.582 31.31 19.582 0.44 0 0.8 0.681 0.8 1.514 0 1.995-8.05-2.047-21.01-10.541-20.87-13.686-33.82-24.859-74.04-63.896-28.91-28.06-48.05-45.077-50.69-45.077-0.73 0-1.33 0.164-1.33 0.365s3.48 3.239 7.74 6.75c4.26 3.512 22.23 20.62 39.94 38.019 17.72 17.398 38.21 36.654 45.53 42.79 14.32 11.976 33.57 25.381 46.11 32.096 4.26 2.285 7.75 4.565 7.75 5.067 0 1.595-1.56 1.024-10.14-3.717-27.22-15.051-44.82-29.517-90.45-74.354-31.82-31.265-48.24-46.016-51.26-46.016-1.06 0 0.35 1.764 3.8 4.718 8.87 7.632 19.74 18.031 50.5 48.32 15.96 15.712 33.07 31.957 38.02 36.1 18.44 15.423 37.67 28.518 52.95 36.048 3.62 1.784 6.58 3.822 6.58 4.529 0 1.888-0.4 1.747-10.61-3.766-29.83-16.126-49.07-31.835-97.93-79.991-18.17-17.898-36.3-35.335-40.31-38.75-9.23-7.872-12.94-8.318-4.15-0.498 3.53 3.141 22.63 21.711 42.44 41.266 50.66 50.001 70.48 65.925 101.41 81.452 5.04 2.526 9.15 5.068 9.15 5.649 0 3.587-29.66-13.138-48.52-27.362-16.18-12.195-25.76-20.938-60.54-55.235-38.79-38.263-53.54-51.894-55.1-50.928-0.56 0.346 2.94 4.282 7.78 8.747 4.84 4.466 23.21 22.56 40.82 40.209 49.22 49.331 72.02 67.547 104.19 83.252 6.26 3.051 11.37 6.141 11.37 6.868 0 2.695-22.47-8.92-40.52-20.941-21.76-14.498-35.51-26.63-80.04-70.664-42.3-41.828-47.81-47.023-49.85-47.023-1.72 0 78.86 80.294 92.87 92.544 21.88 19.134 44.16 34.224 65.19 44.141 6.78 3.198 12.33 6.378 12.34 7.065 0.01 0.688-0.32 1.25-0.73 1.25-0.4 0-7.06-3.128-14.81-6.95-34.38-16.978-63.91-40.844-111.87-90.381-24.68-25.485-46.96-46.669-49.08-46.669-0.72 0 18.56 19.942 42.83 44.316 51.5 51.716 69.17 67.122 95.15 82.935 10.02 6.095 26.48 14.501 33.77 17.236 4.81 1.807 6.98 5.288 2.5 4.003-6.07-1.741-33.64-16.28-44.27-23.352-23.99-15.95-36.73-27.26-87.16-77.335-29.61-29.412-48.86-47.799-50.02-47.793-1.27 6e-3 2.91 4.708 12.66 14.25 8.02 7.832 26.49 26.39 41.05 41.24 37.67 38.402 55.12 53.775 79.62 70.126 12.53 8.363 32.94 19.225 44.12 23.482 3.44 1.31 6.25 2.947 6.25 3.637 0 1.641 0.13 1.662-7.71-1.286-10.32-3.884-32.2-15.561-44.13-23.555-25.23-16.913-37.42-27.845-89.8-80.539-26.47-26.633-46.84-46.365-47.88-46.365-2.01 0 70.85 74.776 89.47 91.816 15.18 13.896 31.87 27.179 46.02 36.638 12.32 8.229 36.22 20.678 47.28 24.619 3.71 1.325 6.75 2.976 6.75 3.668 0 1.812-1.05 1.614-9.72-1.823-13.1-5.206-32.76-15.693-46.11-24.596-26.09-17.419-49.5-38.272-88.61-78.945-29.11-30.274-50.61-51.304-52.49-51.347-1.32-0.03 40.75 43.933 70.83 74.015 28.18 28.178 52.75 48.614 74.97 62.342 11.93 7.369 32.56 17.558 43.04 21.258 4.74 1.673 8.09 3.417 8.09 4.213 0 1.873-2.96 1.031-17.8-5.06-37.76-15.504-77.24-45.681-124.31-95.025-31.77-33.296-59.33-60.773-60.96-60.773-0.92 0 3.83 5.545 10.93 12.783 6.91 7.03 27.13 27.749 44.94 46.041 40.65 41.738 58.96 58.034 84.17 74.916 18.48 12.37 40.95 23.676 57.28 28.815 3.17 0.999 5.75 2.4 5.75 3.128 0 1.835-0.69 1.719-10.68-1.78-11.9-4.172-32.62-14.324-44.85-21.966-12.34-7.717-33.02-23.097-45.02-33.474-10.6-9.163-47.94-46.429-82.91-82.713-15.27-15.841-25.54-25.75-26.71-25.75-1.32 0 1.37 3.293 8.76 10.75 5.85 5.913 22.21 22.9 36.34 37.75 40.09 42.115 59.63 60.381 84.84 79.285 23.06 17.287 47.26 30.456 70.7 38.462 5.24 1.789 9.53 3.816 9.53 4.503 0 1.832-1.37 1.55-13.51-2.782zm-1588.3-28.968c0.826-0.533 1.051-0.969 0.5-0.969-0.55 0-1.675 0.436-2.501 0.969-0.825 0.533-1.05 0.969-0.5 0.969s1.676-0.436 2.501-0.969zm-28.014-6.519c5.778-0.9 16.358-3.14 23.512-4.979 12.811-3.292 36.974-11.379 36.228-12.125-0.21-0.21-3.045 0.537-6.299 1.66-6.522 2.25-22.821 6.511-30.812 8.054-21.573 4.166-54.366 5.183-76.198 2.364-103.06-13.308-204.89-68.912-289.97-158.33-6.4777-6.808-14.744-15.921-18.37-20.25-3.6256-4.329-6.7733-7.871-6.9947-7.871-0.79328 0 17.069 22.738 27.497 35 13.062 15.361 39.85 42.207 55.206 55.324 45.895 39.207 95.27 67.738 147.13 85.021 24.066 8.019 56.636 15.135 80.54 17.596 12.794 1.317 46.012 0.488 58.529-1.46zm865.94-4.33c7.15-1.113 16.16-2.74 20.01-3.616 10.05-2.284 36.6-9.793 36.16-10.23-0.21-0.203-4.83 0.795-10.27 2.218-24.97 6.533-57.42 10.12-82.42 9.113-47.12-1.899-86.6-11.862-127.06-32.063-28.96-14.458-55.33-32.173-100.56-67.564-13.905-10.881-12.912-10.368-16.486-8.52l-3.038 1.57 13.253 11.221c46.146 39.062 71.996 57.11 104.43 72.903 26.6 12.954 59.34 22.49 88.44 25.759 5.22 0.587 11.09 1.247 13.01 1.466s14.3 0.257 27.51 0.083c17.86-0.235 27.34-0.835 37.02-2.34zm-857.43-3.607c12.354-1.761 26.933-4.886 37.79-8.098 10.582-3.131 25.915-8.606 25.438-9.083-0.202-0.202-3.031 0.56-6.285 1.694-8.396 2.926-28.103 7.532-40.434 9.45-16.304 2.536-45.728 3.053-62.532 1.099-103.41-12.025-218.34-72.074-311.11-162.56-18.202-17.751-17.714-16.748 2.8559 5.871 44.756 49.215 103.27 93.34 161.19 121.55 46.368 22.585 97.404 37.477 142.26 41.51 12.504 1.124 37.9 0.404 50.838-1.44zm870.43-4.437c17.3-2.64 25.18-4.342 42.81-9.248 16.56-4.608 19.42-6.19 4.24-2.338-23.46 5.947-46.01 8.67-72.06 8.703-63.72 0.081-120.3-16.83-180.45-53.935-14.84-9.149-28.53-18.425-53.88-36.475l-22.225-15.829-2.897 1.762-2.899 1.761 20.121 15.609c82.69 64.15 130.5 85.491 206.71 92.278 11.37 1.012 47.98-0.371 60.53-2.288zm-849.42-4.991c16.087-2.889 48.36-11.613 47.211-12.762-0.213-0.213-4.619 0.729-9.792 2.094-31.525 8.313-68.803 10.607-99.45 6.12-57.215-8.377-123.15-32.083-184.59-66.361-46.089-25.715-96.41-61.088-134.57-94.594-11.636-10.218-4.3762-2.582 12.904 13.572 87.899 82.174 189.36 135.86 286.74 151.72 17.736 2.887 17.911 2.898 45.023 2.621 19.923-0.203 26.76-0.654 36.518-2.406zm843.42-1.143c7.7-0.56 20.76-2.136 29.02-3.502 14.23-2.356 42.13-9.066 47.52-11.431l2.5-1.096-2.5 0.517c-1.38 0.284-7.67 1.682-13.98 3.106-20.64 4.657-36.31 6.549-59.15 7.142-57.54 1.495-110.19-10.802-166.14-38.792-21.68-10.847-42.36-23.259-85.142-51.105-19.646-12.787-19.773-12.85-22.312-11.187-1.405 0.92-2.193 2.009-1.752 2.421 1.767 1.65 43.596 31.113 54.826 38.624 61.11 40.844 115.05 60.868 175.69 65.225 16.71 1.2 25.75 1.218 41.42 0.078zm-831.41-6.83c16.228-2.791 53.643-12.506 52.357-13.594-0.182-0.155-6.278 1.195-13.547 2.999-23.324 5.789-40.803 7.882-65.824 7.882-24.477 0-34.178-1.119-60.739-7.003-91.893-20.358-193.33-69.571-292.94-142.13-14.117-10.283-8.9499-5.443 13.006 12.182 98.954 79.435 208.39 130.33 305.15 141.9 1.926 0.231 14.082 0.286 27.013 0.123 18.153-0.229 26.248-0.767 35.518-2.361zm860.43-2.728c7.15-0.795 19.3-2.723 27.01-4.286 14.15-2.869 41.84-10.14 41.17-10.809-0.2-0.199-5.75 0.956-12.36 2.566-51.03 12.458-103.48 11.986-158.05-1.421-47.44-11.658-84.83-28.96-163.77-75.799-22.341-13.258-22.923-13.533-25.31-11.969-1.344 0.88-2.083 1.931-1.642 2.335 2.134 1.954 49.882 32.508 65.222 41.735 40.76 24.518 74.25 39.261 110.67 48.723 40.31 10.473 77.56 13.313 117.06 8.925zm-857.92-3.896c15.001-1.777 24.671-3.592 40.014-7.51 11.013-2.812 23.239-6.536 18.009-5.485-1.376 0.276-9.029 1.831-17.008 3.455-27.139 5.525-56.253 7.318-80.617 4.966-24.173-2.334-64.751-12.294-103.04-25.292-71.441-24.25-151.81-63.51-227.79-111.28-8.1165-5.102-14.757-9.087-14.757-8.854 0 0.743 32.992 23.894 48.024 33.7 100.25 65.395 200.36 106.58 284.64 117.11 8.289 1.036 41.258 0.53 52.532-0.806zm883.43-5.479c18.92-2.93 59.89-12.515 58.68-13.727-0.23-0.228-3.96 0.481-8.29 1.576-74.44 18.827-153.81 10.421-236.96-25.094-17.98-7.688-52.26-24.807-84.07-41.999-36.619-19.792-35.368-19.213-38.182-17.707-1.307 0.699-2.029 1.593-1.605 1.987 1.3 1.208 47.857 28.672 64.297 37.934 60.85 34.257 110.44 51.76 164.09 57.91 5.22 0.599 11.08 1.269 13 1.489s15.21 0.248 29.52 0.062c20.09-0.261 29.08-0.815 39.52-2.431zm-859.43-3.484c13.887-2.186 41.11-8.245 42.273-9.408 0.506-0.506-1.707-0.319-4.918 0.417-23.232 5.318-65.265 7.938-88.483 5.517-24.441-2.55-58.342-10.914-100.45-24.782-58.749-19.35-115.41-43.218-184.09-77.551-26.258-13.125-37.638-19.032-61.531-31.935-11.102-5.995-0.8528 0.669 24.012 15.612 92.224 55.425 182.49 95.192 259.82 114.46 35.75 8.909 45.356 10.11 77.352 9.672 17.233-0.236 28.923-0.887 36.018-2.004zm857.43-2.603c21.07-1.904 43.55-6.068 68.3-12.649 5.37-1.43 9.62-2.755 9.43-2.946s-6.17 0.981-13.28 2.604c-55.27 12.612-108.54 11.464-169.01-3.641-43.35-10.83-73.02-22.62-148.32-58.935-23.25-11.212-42.86-20.386-43.58-20.386-0.719 0-2.053 0.562-2.962 1.25-1.734 1.312 6.882 6.197 63.302 35.881 69.37 36.499 121.26 53.1 185.09 59.214 8.42 0.805 40.51 0.559 51.03-0.392zm-863.83-2.965c20.706-1.625 52.588-6.755 54.623-8.789 0.415-0.415-4.525 0.016-10.978 0.958-40.728 5.942-77.372 4.436-113.38-4.659-72.525-18.318-178.21-57.657-282.04-104.98-12.931-5.893-25.875-11.79-28.764-13.104-10.863-4.939-4.4971-1.174 18.668 11.039 99.232 52.317 198.49 92.418 275.75 111.41 33.304 8.186 56.952 10.417 86.13 8.128zm892.84-6.437c20.33-2.777 63.98-11.935 62.75-13.166-0.23-0.229-5.55 0.689-11.82 2.039-26.62 5.728-64.29 9.216-87.45 8.096-42.17-2.037-92.71-12.586-139.09-29.027-21.26-7.54-50.74-19.522-85.52-34.752-40.8-17.871-54.72-23.741-56.28-23.741-1.74 0-5.69 2.925-4 2.968 0.68 0.018 17.12 7.729 36.52 17.137 43.63 21.161 63.42 30.189 85.29 38.911 40.97 16.336 81.98 27.196 118.56 31.396 7.42 0.853 15.09 1.742 17.01 1.976 7.9 0.959 53.05-0.337 64.03-1.837zm-864.94-2.067c17.35-1.821 29.701-3.893 32.194-5.402 1.608-0.974 1.527-1.053-0.669-0.645-8.519 1.581-29.411 2.793-47.524 2.757-33.433-0.068-50.347-2.752-89.283-14.171-57.035-16.726-127.3-40.719-208.86-71.32-30.357-11.389-79.059-30.233-86.935-33.638-2.6917-1.163-5.0636-1.946-5.2709-1.739-1.1691 1.169 95.412 43.213 138.23 60.174 95.572 37.861 169.39 60.474 211.6 64.819 9.919 1.022 43.572 0.524 56.519-0.835zm867.44-4.539c6.61-0.569 18.09-1.941 25.52-3.049 14.62-2.181 50.06-9.627 51.26-10.773 0.41-0.388-4.09 0.267-10 1.454-38.14 7.663-82.36 9.997-115 6.07-60.15-7.236-105.05-20.327-207.85-60.605-47.21-18.5-55.25-21.286-57.7-19.979-1.13 0.605-1.9 1.237-1.72 1.407 0.19 0.169 4.84 2.211 10.34 4.538 5.5 2.326 23.73 10.211 40.52 17.521 90.1 39.241 131.91 52.744 188.59 60.909 24.56 3.537 53.15 4.479 76.04 2.507zm-841.58-3.299c5.966-0.787 11.368-1.976 12.006-2.641 0.901-0.941 0.05-1.075-3.845-0.607-9.095 1.094-40.811 1.408-53.466 0.529-28.767-1.997-40.829-4.704-91.607-20.562-67.332-21.028-248.66-79.912-278.5-90.437-4.6353-1.635-8.5874-2.814-8.7823-2.619-0.4004 0.4 49.818 19.939 89.562 34.846 86.133 32.307 179.06 63.411 226.23 75.725 11.838 3.09 25.489 5.544 39.519 7.103 11.222 1.247 55.86 0.38 68.878-1.337zm19.228-4.417c-0.335-0.336-1.386 0.203-2.337 1.197-1.651 1.728-1.624 1.755 0.61 0.61 1.285-0.659 2.062-1.472 1.727-1.807zm839.36-0.271c14.93-1.27 31.75-3.527 44.93-6.03 25.07-4.76 33.85-7.702 11.97-4.016-79.65 13.421-148.73 4.134-265.5-35.7-88.5-30.184-109.55-37.211-111.46-37.197-1.16 8e-3 -2.68 0.383-3.39 0.833-0.84 0.531 2.31 2.141 9 4.607 5.67 2.085 25.83 9.861 44.82 17.279 72.82 28.458 108.34 40.373 146.74 49.219 22.6 5.207 49.77 9.627 69.86 11.365 9.32 0.805 41.93 0.584 53.03-0.36zm47.25 0.438c-0.33-0.332-1.2-0.368-1.92-0.079-0.8 0.319-0.56 0.556 0.61 0.604 1.05 0.043 1.64-0.193 1.31-0.525zm-890.67-2.497c2.634-1.171-0.308-1.417-24.012-2.006-42.363-1.053-58.037-3.829-101.06-17.902-49.792-16.286-119.09-37.27-191.08-57.858-50.641-14.483-110.85-31.179-111.19-30.836-0.8227 0.822 194.61 64.403 278.77 90.692 44.451 13.886 51.84 15.593 84.042 19.411 1.926 0.228 16.558 0.284 32.516 0.124 21.486-0.216 29.793-0.637 32.016-1.625zm8.633-1.563c1.244-1.508 1.162-1.552-0.879-0.465-2.328 1.24-2.901 2.129-1.373 2.129 0.483 0 1.496-0.749 2.252-1.664zm6.875-0.336c0.825-0.533 1.051-0.969 0.5-0.969-0.55 0-1.676 0.436-2.501 0.969s-1.051 0.969-0.5 0.969c0.55 0 1.676-0.436 2.501-0.969zm-8.475-4.1c1.467-1.467-0.135-1.651-19.225-2.212-35.032-1.03-58.317-5.155-89.358-15.831-67.472-23.204-122.66-39.082-211.54-60.86-66.888-16.389-128.3-29.999-92.824-20.568 22.453 5.968 144.37 40.947 179.3 51.44 44.461 13.359 64.807 19.71 98.049 30.608 29.427 9.648 40.847 12.691 58.126 15.491 17.834 2.89 32.622 3.871 55.646 3.69 17.062-0.133 20.475-0.408 21.825-1.758zm7.474-0.4c1.597-1.923-0.032-1.943-2.56-0.032-1.632 1.234-1.682 1.473-0.313 1.5 0.896 0.018 2.188-0.643 2.873-1.468zm7.019-1.328c-0.666-0.222-1.956 0.355-2.864 1.283-1.547 1.579-1.47 1.605 1.211 0.404 1.576-0.706 2.32-1.465 1.653-1.687zm860.4-0.103c18.64-2.488 36.88-5.849 38.99-7.184 1.11-0.707 0.71-0.827-1.47-0.438-7.18 1.278-28.11 3.588-41.02 4.526-65.17 4.74-124.69-6.195-255.63-46.964-33.81-10.53-61.57-18.759-80.75-23.945-10.06-2.723-14.39-3.09-14.24-1.207 0.03 0.354 17.03 6.334 37.77 13.291 20.75 6.956 51.67 17.403 68.73 23.216 68.13 23.217 119.38 35.726 166.24 40.58 15.41 1.596 63.72 0.483 81.38-1.875zm-853.92 0.931c0.34-0.55 0.168-1-0.382-1s-1.279 0.45-1.619 1-0.168 1 0.382 1c0.551 0 1.279-0.45 1.619-1zm-15.622-4.363c0.939-1.13-0.707-1.48-9.631-2.047-41.051-2.609-66.728-8.095-103.07-22.02-42.096-16.132-96.379-31.461-166.36-46.979-49.952-11.076-138.13-28.157-140.43-27.204-0.6065 0.25-0.3091 0.491 0.661 0.534 5.7328 0.257 121.18 28.248 165.32 40.085 52.569 14.096 97.752 27.78 131.74 39.898 38.369 13.676 64.772 18.365 106.49 18.911 10.888 0.143 14.394-0.128 15.265-1.178zm7.118-0.137c1.012-1.22 0.965-1.5-0.255-1.5-0.826 0-2.061 0.675-2.747 1.5-1.012 1.22-0.965 1.5 0.256 1.5 0.825 0 2.061-0.675 2.746-1.5zm7.003 0c1.585-1.908 0.099-1.889-2.442 0.032-1.555 1.175-1.629 1.468-0.373 1.468 0.864 0 2.13-0.675 2.815-1.5zm7.132-0.164c1.245-1.508 1.163-1.552-0.878-0.465-2.329 1.24-2.902 2.129-1.373 2.129 0.482 0 1.496-0.749 2.251-1.664zm7.376-0.336c0.34-0.55 0.168-1-0.382-1-0.551 0-1.279 0.45-1.619 1s-0.168 1 0.382 1 1.279-0.45 1.619-1zm6.503 0c0.825-0.533 1.05-0.969 0.5-0.969s-1.676 0.436-2.501 0.969-1.051 0.969-0.5 0.969c0.55 0 1.676-0.436 2.501-0.969zm820.91-1c28.7-1.518 59.41-5.46 61.85-7.938 0.92-0.934 0.62-1.08-1.32-0.653-13.52 2.974-71.35 4.617-93.19 2.647-39.19-3.536-88.69-14.406-182.74-40.122-74.89-20.476-113.07-29.706-116.03-28.047-1.46 0.814-1.27 1.061 1.27 1.659 8.28 1.943 51.53 14.696 88.04 25.957 47.6 14.683 72.86 22.025 94.54 27.484 45.91 11.557 85.22 18.136 115.56 19.343 3.85 0.153 8.58 0.356 10.51 0.45 1.92 0.095 11.6-0.256 21.51-0.78zm-851.06-3.342c1.559-1.877 0.407-2.658-3.921-2.658-6.413 0-33.567-3.935-48.328-7.004-17.749-3.689-33.472-8.62-50.171-15.733-46.422-19.775-109.02-36.309-195.6-51.659-37.365-6.625-110.44-17.758-115.06-17.53-0.826 0.041 9.305 2.071 22.511 4.511 118.75 21.942 220.01 47.468 274.85 69.289 29.766 11.843 59.399 18.405 94.838 21.001 17.436 1.278 19.657 1.255 20.879-0.217zm8.135-0.158c1.037-1.248 0.909-1.5-0.755-1.5-1.101 0-2.562 0.675-3.247 1.5-1.037 1.248-0.909 1.5 0.755 1.5 1.101 0 2.562-0.675 3.247-1.5zm6.46 0.569c1.003-1.621-1.175-2.114-2.467-0.558-1.006 1.211-0.944 1.489 0.328 1.489 0.86 0 1.823-0.419 2.139-0.931zm7.547-0.069c1.334-0.862 1.334-0.969 0-0.969-0.825 0-2.176 0.436-3.002 0.969-1.333 0.862-1.333 0.969 0 0.969 0.826 0 2.177-0.436 3.002-0.969zm7.504 0c0.34-0.55-0.057-1-0.883-1-0.825 0-1.779 0.45-2.119 1s0.057 1 0.883 1c0.825 0 1.779-0.45 2.119-1zm7.003 0c0.783-1.266-0.542-1.266-2.501 0-1.294 0.835-1.267 0.971 0.191 0.985 0.931 8e-3 1.97-0.435 2.31-0.985zm7.004 0c0.782-1.266-0.543-1.266-2.502 0-1.293 0.835-1.266 0.971 0.192 0.985 0.93 8e-3 1.97-0.435 2.31-0.985zm7.029-0.807c-0.307-0.308-1.114-1e-3 -1.794 0.683-0.98 0.988-0.865 1.102 0.561 0.56 0.986-0.376 1.541-0.935 1.233-1.243zm-1.389-2.981c-0.723-0.24-1.788 0.038-2.371 0.62-0.742 0.742-0.351 0.872 1.313 0.437 1.353-0.354 1.807-0.807 1.058-1.057zm7.866 0.181c0-0.216-0.675-0.393-1.5-0.393-0.826 0-1.501 0.436-1.501 0.969 0 0.532 0.675 0.709 1.501 0.393 0.825-0.317 1.5-0.753 1.5-0.969zm6.53-0.2c-0.307-0.308-1.115-1e-3 -1.794 0.683-0.981 0.988-0.866 1.102 0.56 0.56 0.987-0.376 1.542-0.935 1.234-1.243zm238.09 0.79c46.105-2.704 87.056-9.904 115.87-20.374 12.733-4.627 12.57-4.5 9.193-7.191l-2.834-2.258-5.086 2.038c-38.713 15.509-94.872 25.487-156.16 27.747l-20.01 0.737 21.01 0.15c11.556 0.082 28.665-0.3 38.019-0.849zm-281.21-3.099c-0.308-0.499-1.461-0.402-2.625 0.221-1.625 0.869-1.782 1.291-0.723 1.945 1.531 0.946 4.204-0.783 3.348-2.166zm7.576 1.616c1.7-2.047-0.864-2.07-3.561-0.032-1.904 1.44-1.9 1.469 0.187 1.5 1.171 0.018 2.689-0.643 3.374-1.468zm7.003 0.5c1.22-0.788 1.091-0.972-0.691-0.985-1.205-8e-3 -2.47 0.435-2.81 0.985-0.788 1.273 1.53 1.273 3.501 0zm7.504 0c0.34-0.55-0.057-1-0.882-1-0.826 0-1.779 0.45-2.119 1s0.057 1 0.882 1c0.826 0 1.779-0.45 2.119-1zm-39.167-4.17c-2.119-0.371-9.932-1.632-17.361-2.802-16.809-2.647-42.542-8.884-56.068-13.59-5.64-1.962-16.379-6.412-23.866-9.888-57.588-26.739-143.71-44.916-282.1-59.54-16.155-1.707-29.886-2.931-30.515-2.719-0.628 0.212 1.785 0.709 5.362 1.105 26.717 2.959 95.437 14.146 136.57 22.234 72.486 14.253 121.99 28.089 161.98 45.277 24.324 10.452 50.118 17.061 82.137 21.046 22.018 2.74 23.708 2.809 25.865 1.057 1.739-1.412 1.614-1.547-2.001-2.18zm10.094 2.638c1.87-1.413 1.847-1.468-0.628-1.468-1.413 0-3.13 0.675-3.816 1.5-1.032 1.243-0.924 1.495 0.629 1.468 1.029-0.017 2.747-0.692 3.815-1.5zm225.42 0.804c-2.063-0.216-5.441-0.216-7.504 0-2.063 0.215-0.375 0.392 3.752 0.392s5.815-0.177 3.752-0.392zm659.58-1.758c15.6-1.645 22.53-2.925 23.39-4.326 0.26-0.416-3.43-0.35-8.2 0.147-4.78 0.498-23.09 0.95-40.7 1.006-36.35 0.114-47.21-0.861-81.54-7.327-36.59-6.889-55.34-11.161-142.57-32.482-60.94-14.893-116.44-26.25-120.66-24.69-1.59 0.586-0.06 1.204 6.25 2.536 16.3 3.436 56 13.657 101.4 26.111 88.76 24.346 141.36 36.072 177.09 39.479 6.05 0.578 12.8 1.227 15.01 1.444 9.03 0.89 56.09-0.377 70.53-1.898zm-828.27-0.302c-0.722-0.24-1.788 0.038-2.37 0.62-0.743 0.742-0.351 0.872 1.312 0.437 1.353-0.354 1.807-0.807 1.058-1.057zm208.96 0.74c52.626-3.329 96.87-11.412 131.78-24.074l11.219-4.069-2.836-2.385-2.836-2.386-10.783 4.061c-36.622 13.794-94.71 24.862-151.06 28.781l-12.006 0.836 10.005 0.14c5.503 0.077 17.434-0.329 26.513-0.904zm641.81 0.059c0.35-0.566-0.05-0.734-0.94-0.393-1.73 0.665-2.05 1.382-0.61 1.382 0.52 0 1.22-0.445 1.55-0.989zm-864.92-1.011c1.243-0.803 1.157-0.969-0.5-0.969-1.101 0-2.677 0.436-3.502 0.969-1.243 0.803-1.157 0.969 0.5 0.969 1.101 0 2.677-0.436 3.502-0.969zm6.732 0.396c-0.332-0.332-1.195-0.368-1.918-0.079-0.797 0.319-0.56 0.556 0.606 0.604 1.054 0.043 1.644-0.193 1.312-0.525zm156.62-0.1c-1.23-0.237-3.481-0.243-5.002-0.014-1.521 0.23-0.514 0.424 2.237 0.432 2.751 7e-3 3.996-0.181 2.765-0.418zm-178.35-1.796c1.7-2.047-0.864-2.07-3.56-0.032-1.904 1.44-1.9 1.469 0.187 1.5 1.17 0.018 2.688-0.643 3.373-1.468zm8.004 0.5c1.243-0.803 1.157-0.969-0.5-0.969-1.1 0-2.676 0.436-3.502 0.969-1.242 0.803-1.156 0.969 0.501 0.969 1.1 0 2.676-0.436 3.501-0.969zm219.61-1.557c54.407-4.918 99.617-13.998 136.92-27.499l8.853-3.204-2.451-2.449-2.45-2.449-12.637 4.578c-39.388 14.271-97.046 25.913-158.75 32.055l-14.507 1.444 14.507-0.515c7.979-0.283 21.711-1.166 30.515-1.961zm-242.72 0.174c1.892-2.279-1.424-2.805-3.466-0.55-1.675 1.85-1.663 1.933 0.284 1.933 1.118 0 2.551-0.622 3.182-1.383zm7.935 0.507c1.053-0.668 0.964-0.988-0.428-1.522-1.045-0.4-2.388-0.05-3.3 0.861-1.383 1.383-1.34 1.535 0.428 1.522 1.081-8e-3 2.566-0.396 3.3-0.861zm49.92 0.272c-0.332-0.332-1.196-0.368-1.917-0.079-0.799 0.319-0.561 0.556 0.604 0.604 1.055 0.043 1.645-0.193 1.313-0.525zm123.6-0.1c-1.23-0.237-3.481-0.243-5.002-0.014-1.521 0.23-0.514 0.424 2.237 0.432 2.751 7e-3 3.996-0.181 2.765-0.418zm-188.45-1.679c0.891-1.073 0.778-1.526-0.504-2.018-1.677-0.643-4.401 0.919-4.401 2.523 0 1.394 3.641 1.018 4.905-0.505zm50.122 0.383c1.334-0.862 1.334-0.969 0-0.969-0.825 0-2.176 0.436-3.001 0.969-1.334 0.862-1.334 0.969 0 0.969 0.825 0 2.176-0.436 3.001-0.969zm7.733 0.396c-0.332-0.332-1.195-0.368-1.918-0.079-0.797 0.319-0.56 0.556 0.606 0.604 1.054 0.043 1.644-0.193 1.312-0.525zm111.08-0.085c-0.963-0.252-2.54-0.252-3.502 0-0.963 0.251-0.175 0.457 1.751 0.457s2.713-0.206 1.751-0.457zm45.862-0.821c63.757-6.05 117.61-16.542 159.68-31.111 7.327-2.537 13.459-4.736 13.629-4.887 0.169-0.151-0.988-1.196-2.573-2.324l-2.88-2.05-6.82 2.475c-40.129 14.558-106.9 29.466-162.62 36.308-24.611 3.021-23.092 2.778-18.42 2.949 2.251 0.083 11.255-0.53 20.01-1.36zm-222.2-1.49c1.765-1.949 1.748-2-0.69-2-3.764 0-30.692-5.606-43.675-9.092-18.983-5.098-30.627-9.566-53.184-20.41-11.831-5.687-27.589-12.385-35.017-14.884-51.615-17.363-131.76-30.266-233.82-37.644-16.069-1.162-30.476-1.923-32.016-1.691-2.16 0.325-1.885 0.456 1.203 0.571 7.026 0.264 57.155 6.1 83.343 9.703 97.858 13.465 162.39 29.186 209.3 50.988 27.638 12.846 45.973 17.818 95.047 25.781 5.569 0.903 7.767 0.598 9.505-1.322zm44.023-0.832c-0.224-0.225-1.644-0.098-3.154 0.281-2.015 0.505-2.384 0.912-1.387 1.528 1.271 0.785 5.465-0.886 4.541-1.809zm7.002 1.832c0.79-1.277-2.525-1.277-4.502 0-1.174 0.758-0.915 0.973 1.192 0.985 1.48 8e-3 2.97-0.435 3.31-0.985zm35.247 0.396c-0.332-0.332-1.196-0.368-1.917-0.079-0.799 0.319-0.561 0.556 0.604 0.604 1.055 0.043 1.645-0.193 1.313-0.525zm58.55-0.058c-0.687-0.278-1.813-0.278-2.501 0-0.688 0.277-0.125 0.504 1.25 0.504 1.376 0 1.939-0.227 1.251-0.504zm18.028 6e-3c-0.677-0.274-2.028-0.291-3.002-0.037-0.973 0.253-0.419 0.477 1.232 0.498 1.651 0.02 2.447-0.187 1.77-0.461zm38.913-1.388c65.524-7.721 121-19.008 167.68-34.121l18.528-5.997-2.129-2.129c-2.465-2.463 0.856-3.162-31.169 6.557-46.474 14.103-105.5 27.105-159.58 35.149-19.944 2.966-16.375 3.256 6.666 0.541zm715.7 1.044c0.34-0.55 0.17-1-0.38-1s-1.28 0.45-1.62 1-0.17 1 0.38 1 1.28-0.45 1.62-1zm-881.94-1.5c1.016-1.223 0.961-1.5-0.296-1.5-0.847 0-2.291 0.288-3.207 0.639-1.33 0.51-1.397 0.81-0.332 1.485 1.862 1.18 2.412 1.09 3.835-0.624zm43.272 0.838c-0.688-0.278-1.813-0.278-2.501 0-0.689 0.277-0.125 0.504 1.25 0.504 1.376 0 1.939-0.227 1.251-0.504zm21.261-0.338c0.34-0.55 0.168-1-0.383-1-0.55 0-1.278 0.45-1.618 1-0.341 0.55-0.168 1 0.382 1s1.278-0.45 1.619-1zm42.804-4.56c30.604-7.654 48.418-12.446 105.77-28.448 52.274-14.586 86.604-23.791 99.049-26.557 9.899-2.2 11.211-2.929 7.946-4.415-2.063-0.94-5.566-0.496-19.488 2.467-31.972 6.807-62.683 15.337-135.03 37.506-25.313 7.757-53.902 16.371-63.532 19.143-15.797 4.547-19.759 5.864-17.641 5.864 0.385 0 10.702-2.502 22.927-5.56zm22.228-1.105c14.307-3.049 43.797-9.98 65.533-15.402 37.155-9.27 129.36-33.943 133.41-35.695 1.676-0.727 1.606-0.928-0.778-2.203-2.39-1.279-4.684-0.89-25.856 4.383-12.778 3.182-40.117 10.493-60.752 16.247-72.872 20.32-95.81 26.592-120.56 32.967-28.956 7.457-27.1 7.396 9.004-0.297zm9.317 2.179c57.635-10.28 113.96-23.497 171.28-40.192 12.381-3.607 23.525-6.782 24.763-7.056 2.885-0.64 2.851-1.607-0.113-3.192-2.082-1.114-8.139 0.307-50.775 11.909-73.767 20.073-118.77 31.22-168.97 41.849-2.476 0.525-3.788 1.002-2.916 1.061 0.873 0.059 12.906-1.912 26.74-4.379zm11.35 1.973c65.51-9.486 132.74-24.488 184.09-41.083l10.947-3.537-2.502-1.966-2.501-1.967-21.812 6.428c-55.509 16.361-120.3 31.896-169.38 40.615-20.841 3.701-21.111 3.759-18.352 3.907 1.187 0.064 9.967-1.015 19.509-2.397zm695.19 1.516c28.57-1.453 34.46-2.071 36.86-3.877 2-1.51 0.86-1.561-16.1-0.715-20.51 1.023-54.2-0.301-74.79-2.939-18.23-2.336-55.27-9.793-126.56-25.476-85.11-18.725-124.09-26.23-161.08-31.02-17.73-2.295-16.58-0.579 1.87 2.788 25.85 4.717 51.99 10.611 114.63 25.844 112.62 27.389 148.2 34.139 188.15 35.701 16.09 0.629 19.1 0.604 37.02-0.306zm45.55-0.81c-0.31-0.308-1.12-1e-3 -1.8 0.683-0.98 0.988-0.86 1.102 0.56 0.56 0.99-0.376 1.54-0.935 1.24-1.243zm-898.52-0.538c1.764-1.289 1.754-1.367-0.252-1.891-1.322-0.346-2.724 0.15-3.805 1.344-1.625 1.795-1.612 1.892 0.252 1.892 1.08 0 2.792-0.605 3.805-1.345zm35.715-0.901c-1.146-1.145-3.448-0.036-2.64 1.271 0.301 0.488 1.24 0.623 2.084 0.299 1.004-0.385 1.196-0.93 0.556-1.57zm8.119 1.59c-0.678-0.274-2.028-0.291-3.002-0.037-0.973 0.253-0.419 0.478 1.232 0.498 1.65 0.02 2.447-0.187 1.77-0.461zm21.741-0.951c0-0.216-0.675-0.393-1.5-0.393-0.826 0-1.501 0.436-1.501 0.969 0 0.532 0.675 0.709 1.501 0.393 0.825-0.317 1.5-0.753 1.5-0.969zm39.161-4.339c9.707-2.765 37.621-11.136 62.031-18.601 76.211-23.31 109.86-32.671 141.76-39.445 7.333-1.558 13.577-3.075 13.875-3.371 1.406-1.407-5.844-1.812-13.114-0.733-23.812 3.534-57.088 11.713-94.137 23.139-24.921 7.685-128.7 42.926-130.06 44.164-0.632 0.576-0.448 0.721 0.5 0.393 0.826-0.285 9.443-2.78 19.151-5.546zm-112.21 3.458c1.001-1.206 0.927-1.607-0.39-2.112-1.649-0.632-4.603 1.115-4.603 2.722 0 1.442 3.661 0.994 4.993-0.61zm36.028-0.012c1.038-1.251 0.902-1.5-0.819-1.5-2.192 0-3.555 1.294-2.489 2.361 1.008 1.007 1.963 0.759 3.308-0.861zm-43.522-1.5c1.766-1.95 1.748-2-0.723-2-2.971 0-5.647 2.491-3.571 3.324 2.12 0.85 2.405 0.762 4.294-1.324zm36.21-0.791c-0.995-0.208-2.558-0.091-3.473 0.26-1.393 0.534-1.433 0.782-0.247 1.515 0.858 0.529 2.233 0.426 3.474-0.26 1.889-1.044 1.909-1.167 0.246-1.515zm36.596 2.135c-0.678-0.274-2.028-0.291-3.002-0.037-0.973 0.253-0.419 0.478 1.232 0.498 1.65 0.02 2.447-0.187 1.77-0.461zm71.979-16.5c96.876-33.033 133.18-43.607 172.24-50.161 11.257-1.89 13.22-2.469 11.662-3.441-4.415-2.756-45.821 4.329-78.011 13.349-31.166 8.733-58.149 18.135-121.31 42.274-19.97 7.631-36.984 14.123-37.809 14.426-0.998 0.366-0.757 0.578 0.713 0.63 1.217 0.043 24.854-7.641 52.526-17.077zm-151.64 12.477c-0.197-0.196-9.337-2.584-20.311-5.307-31.052-7.702-52.05-15.481-71.089-26.334-14.348-8.18-25.75-13.278-40.626-18.165-43.158-14.179-107.11-23.939-189.8-28.967-28.375-1.725-84.013-3.91-84.601-3.322-0.22 0.22 9.063 0.956 20.627 1.636 70.155 4.124 146.97 13.797 196.18 24.699 38.358 8.501 60.99 16.145 89.804 30.332 25.242 12.428 49.786 20.187 83.649 26.441 11.717 2.164 13.18 2.251 14.763 0.874 0.967-0.841 1.596-1.69 1.4-1.887zm35.016 0.505c-1.135-0.635-2.331-0.466-3.754 0.53-1.954 1.368-1.97 1.488-0.244 1.878 1.014 0.229 2.703-9e-3 3.754-0.53 1.742-0.862 1.764-1.028 0.244-1.878zm36.661 2.07c-0.792-0.791-1.627-0.799-2.952-0.03-1.619 0.941-1.483 1.077 1.105 1.104 2.152 0.022 2.652-0.269 1.847-1.074zm55.069-12.008c85.622-32.847 122.16-44.95 159.86-52.954 11.559-2.454 37.654-6.73 42.403-6.949 0.55-0.025 0.224-0.498-0.724-1.051-2.335-1.359-24.199 0.513-42.538 3.643-29.057 4.96-66.64 16.209-105.81 31.673-17.847 7.045-86.264 35.949-89.545 37.829-1.246 0.714-1.188 0.865 0.338 0.891 1.012 0.016 17.22-5.87 36.018-13.082zm793.5 11.58c2.47-1.868 0.85-1.847-2.44 0.032-1.45 0.829-1.87 1.431-1 1.433 0.83 2e-3 2.37-0.657 3.44-1.465zm-855.37-0.468c0.79-1.277-2.525-1.277-4.502 0-1.174 0.758-0.915 0.973 1.192 0.985 1.48 8e-3 2.97-0.435 3.31-0.985zm40.104-8.084c105.18-45.657 153.64-61.29 204.86-66.096 18.406-1.727 12.629-3.022-8.162-1.831-53.204 3.05-98.923 17.977-194.54 63.512-21.583 10.279-27.29 13.499-23.928 13.499 0.46 0 10.252-4.088 21.761-9.084zm825.75 6.449c1.37-1.201-1.89-0.086-3.48 1.19-1.83 1.467-1.8 1.487 0.56 0.365 1.37-0.655 2.69-1.355 2.92-1.555zm-902.37 0.135c1.05-1.265 0.854-1.5-1.256-1.5-1.375 0-3.061 0.675-3.747 1.5-1.05 1.265-0.854 1.5 1.256 1.5 1.376 0 3.062-0.675 3.747-1.5zm27.986 0.538c1.253-0.791 1.204-1.034-0.328-1.621-1.11-0.426-2.428-0.063-3.438 0.946-1.516 1.516-1.492 1.636 0.328 1.622 1.081-8e-3 2.628-0.435 3.438-0.947zm882.47-1.608c0-0.275-0.9-0.019-2 0.57-1.11 0.589-2.01 1.295-2.01 1.57s0.9 0.019 2.01-0.57c1.1-0.589 2-1.295 2-1.57zm-918.53 0.159c0.876-1.055 0.883-1.589 0.027-2.118-1.394-0.861-6.098 1.49-5.363 2.68 0.825 1.333 4.044 0.994 5.336-0.562zm28.566-1.598c-1.088-0.381-2.765-0.204-3.726 0.396-1.663 1.037-1.663 1.12 0 1.726 0.961 0.349 2.638 0.172 3.726-0.396 1.971-1.027 1.971-1.034 0-1.726zm52.783-8.616c99.137-47.468 144.65-62.478 200.87-66.249 8.635-0.579 10.648-0.908 6.503-1.064-3.302-0.123-7.354-0.35-9.005-0.503-6.158-0.573-32.735 1.512-44.178 3.466-33.98 5.799-69.058 18.048-113.4 39.596-19.024 9.244-63.563 32.362-67.507 35.039-1.93 1.311-1.925 1.34 0.235 1.34 1.214 0 13.133-5.231 26.486-11.625zm-87.845 7.733c1.077-1.741-3.843-2.048-5.714-0.356-1.784 1.613-1.785 1.701-0.037 2.336 1.825 0.664 4.736-0.338 5.751-1.98zm73.03-6.777c28.627-15.308 60.774-31.371 77.612-38.78 49.871-21.945 90.893-32.218 130.56-32.696l12.012-0.144-13.507-0.944c-25.568-1.788-57.322 2.207-85.588 10.766-32.986 9.989-69.804 27.604-123.82 59.242-16.022 9.385-18.867 11.574-15.774 12.146 0.235 0.043 8.564-4.272 18.509-9.59zm823.59 9.026c5.07-0.394 8.91-1.237 10.24-2.244 1.97-1.498 0.21-1.62-24.62-1.714-45.59-0.173-56.04-1.621-143.81-19.903-109.28-22.767-156.14-30.724-209.18-35.522-17.71-1.601-19.91-0.824-3.92 1.382 37.49 5.174 72.01 11.883 152.57 29.65 92.2 20.332 120.34 25.72 145.58 27.868 12.12 1.031 61.87 1.36 73.14 0.483zm-868.48-1.825c1.842-1.393 1.781-1.47-1.188-1.5-1.721-0.018-3.689 0.643-4.374 1.468-1.05 1.263-0.861 1.5 1.187 1.5 1.338 0 3.306-0.661 4.375-1.468zm-37.18-1.42c1.648-1.819 1.517-1.932-3.597-3.131-10.827-2.54-34.87-10.035-45.924-14.317-15.933-6.172-26.706-11.47-38.921-19.143-18.37-11.538-33.657-17.729-59.465-24.083-50.292-12.381-112.9-18.278-200.16-18.856-26.414-0.175-43.522-0.169-38.019 0.012 139.45 4.6 236.81 20.168 281.2 44.965 29.579 16.525 50.383 24.492 85.987 32.928 16.878 3.999 16.767 3.989 18.907 1.625zm29.117-0.112c1.763-1.948 1.748-1.999-0.596-1.968-1.323 0.017-3.226 0.653-4.229 1.413-1.896 1.436-1.697 1.637 2.419 2.439 0.327 0.064 1.41-0.784 2.406-1.884zm48.916-10.389c88.858-52.126 138.62-70.185 195.01-70.768 12.623-0.131 14.016-0.28 8.203-0.876-10.913-1.12-33.602-1.075-44.311 0.087-39.666 4.306-81.984 20.346-131.78 49.949-15.949 9.482-49.291 30.623-51.49 32.648-1.265 1.165-1.143 1.349 0.892 1.349 1.296 0 11.86-5.575 23.476-12.389zm847.04 10.889c1.44-0.826 1.87-1.429 1-1.429-0.83 0-2.63 0.643-4.01 1.429-1.44 0.826-1.87 1.429-1 1.429 0.83 0 2.62-0.643 4.01-1.429zm8.92-1.135c1.37-1.201-1.89-0.086-3.48 1.19-1.83 1.467-1.8 1.487 0.56 0.365 1.38-0.655 2.69-1.355 2.92-1.555zm-863.35-12.907c79.677-51.107 125.83-69.37 182.7-72.286l13.9-0.712-13.006-0.747c-31.864-1.83-66.014 4.958-100.55 19.987-26.441 11.506-50.695 25.939-91.85 54.656-13.254 9.248-16.889 12.234-15.508 12.737 0.993 0.361 2.255 0.401 2.806 0.089 0.55-0.313 10.23-6.488 21.51-13.724zm871.43 13.042c1.45-0.829 1.88-1.431 1-1.433-0.83-2e-3 -2.37 0.657-3.44 1.465-2.47 1.868-0.85 1.847 2.44-0.032zm-921.39-0.535c2.66-1.423 2.43-2.965-0.444-2.965-2.483 0-5.087 2.204-3.949 3.342 0.927 0.926 2.154 0.82 4.393-0.377zm931.4-1.535c0-0.275-0.9-0.019-2 0.57s-2 1.295-2 1.57 0.9 0.019 2-0.57 2-1.295 2-1.57zm-893.17-11.301c50.307-35.483 82.991-53.557 117.78-65.128 23.548-7.832 41.684-10.913 65.507-11.127 13.383-0.121 13.709-0.171 7.029-1.078-3.851-0.524-15.557-0.723-26.012-0.442-15.2 0.407-21.486 1.03-31.367 3.105-41.253 8.668-77.99 27.845-134.02 69.958-20.644 15.518-21.563 16.44-17.437 17.513 0.149 0.038 8.483-5.722 18.52-12.801zm-45.503 10.671c1.827-1.826 1.445-2.8-1.101-2.8-2.276 0-4.702 1.651-4.702 3.2 0 1.247 4.463 0.939 5.803-0.4zm896.77 0.548c9.25-0.471 13.19-1.072 14.75-2.246 1.98-1.493 0.99-1.622-14.63-1.896-39.88-0.7-62.58-3.585-112.75-14.335-100.11-21.449-172.81-32.948-232.66-36.795-31.69-2.036-34.45-2.169-33.91-1.629 0.31 0.303 7.49 1.218 15.98 2.032 51.07 4.9 96.6 12.913 221.03 38.908 56.92 11.89 78.04 14.949 110.05 15.942 4.67 0.145 10.98 0.354 14.01 0.463 3.03 0.11 11.18-0.09 18.13-0.444zm-862.83-11.314c76.339-58.701 124.73-80.447 180.68-81.181 10.005-0.131 10.562-0.227 5.202-0.891-9.006-1.117-26.866-1.077-37.019 0.083-49.323 5.637-94.533 29.747-159.91 85.277-6.938 5.893-7.743 7.355-4.174 7.584 0.55 0.036 7.401-4.857 15.223-10.872zm886.22 8.966c1.66-1.099 2.33-1.987 1.5-1.987s-2.85 0.894-4.5 1.987c-1.66 1.099-2.33 1.987-1.5 1.987s2.85-0.894 4.5-1.987zm-927.78-0.661c1.737-1.571 1.059-1.903-12.427-6.082-30.881-9.568-54.321-20.282-73.741-33.705-12.774-8.829-19.472-12.273-33.057-17-43.385-15.093-104.86-21.673-200.11-21.416-71.052 0.191-85.477 1.218-29.015 2.064 87.967 1.32 147.82 7.222 195.6 19.286 26.671 6.735 41.942 12.968 58.998 24.08 16.417 10.696 41.789 21.277 70.297 29.318 21.023 5.929 20.765 5.891 23.458 3.455zm936.84 0.193c1.48-1.109 1.58-1.468 0.44-1.468-0.83 0-2.37 0.66-3.44 1.468-1.47 1.109-1.58 1.468-0.44 1.468 0.82 0 2.37-0.661 3.44-1.468zm8.45-0.032c1.6-0.916 1.94-1.442 0.94-1.465-0.86-0.019-2.43 0.626-3.5 1.433-2.48 1.88-0.71 1.902 2.56 0.032zm-911.92-11.135c38.562-32.13 63.644-49.318 91.673-62.821 27.712-13.351 55.651-20.221 84.083-20.677l8.294-0.133-8.004-0.925c-4.403-0.509-13.407-0.68-20.01-0.38-54.291 2.467-99.448 26.501-168.37 89.616-5.835 5.342-6.323 6.6-2.671 6.876 0.575 0.043 7.328-5.157 15.008-11.556zm919.92 10.635c0.83-0.533 1.05-0.969 0.5-0.969s-1.67 0.436-2.5 0.969-1.05 0.969-0.5 0.969 1.67-0.436 2.5-0.969zm-545.39-5.587c-2.553-1.883-3.528-2.084-5.968-1.234-1.605 0.559-2.918 1.219-2.918 1.467 0 0.247 1.222 1.5 2.714 2.784 2.586 2.222 2.872 2.26 5.969 0.783l3.254-1.551zm555.4 4.587c0.83-0.533 1.05-0.969 0.5-0.969s-1.67 0.436-2.5 0.969-1.05 0.969-0.5 0.969 1.67-0.436 2.5-0.969zm-942.82-8.098c70.605-64.588 118.04-88.979 173.63-89.278 8.084-0.043 14.593-0.182 14.466-0.309s-6.213-0.714-13.526-1.305c-43.336-3.498-83.363 9.855-126.25 42.117-21.175 15.93-63.061 54.565-60.746 56.034 2.401 1.523 3.593 0.827 12.432-7.259zm907.66 4.237c2.32-1.786 2.1-1.827-13.01-2.452-34.86-1.44-59.08-4.919-105.91-15.216-97.19-21.37-175.16-31.823-245.62-32.934-22.55-0.355-24.15-0.289-12.01 0.498 66.22 4.29 128.49 14.005 240.12 37.463 38.4 8.07 55.07 10.82 75.54 12.467 20.35 1.638 21.15 1.674 40.52 1.838 16.01 0.136 18.27-0.049 20.37-1.664zm8.45 0.425c2.9-2.194 0.36-2.647-2.87-0.514-2.45 1.614-2.61 1.933-0.94 1.912 1.1-0.014 2.81-0.643 3.81-1.398zm8.7-0.064c2.21-1.263 2.27-1.43 0.5-1.433-1.1-2e-3 -2.87 0.657-3.94 1.465-2.58 1.949 0.02 1.925 3.44-0.032zm10-0.591c1.2-0.677 1.09-0.854-0.56-0.879-1.13-0.016-2.93 0.668-4 1.522-1.86 1.491-1.84 1.525 0.56 0.879 1.38-0.37 3.17-1.055 4-1.522zm8.57-0.395c1.77-1.36 1.66-1.394-1.31-0.402-3.39 1.132-4.17 1.888-1.94 1.888 0.72 0 2.18-0.669 3.25-1.486zm8.44-0.014c1.38-0.786 2.05-1.429 1.5-1.429s-2.12 0.643-3.5 1.429-2.05 1.429-1.5 1.429 2.12-0.643 3.5-1.429zm-555.74-1.111l2.46-1.611-2.403-1.889c-2.838-2.231-4.551-2.368-7.025-0.56-1.715 1.254-1.662 1.449 0.945 3.5 3.299 2.594 2.965 2.563 6.023 0.56zm564.76 0.611c0.83-0.533 1.05-0.969 0.5-0.969s-1.67 0.436-2.5 0.969-1.05 0.969-0.5 0.969 1.67-0.436 2.5-0.969zm-580.52-2.332l2.272-1.261-2.955-2.183c-2.672-1.975-3.258-2.057-6.117-0.855l-3.162 1.329 2.844 2.119c3.307 2.464 4.051 2.553 7.118 0.851zm554.97-2.323c1.67-1.14 1.72-1.345 0.3-1.345-2.15 0-6.77 2.093-6.77 3.067 0 1.011 4.04-0.064 6.47-1.722zm7.07 1.206c1.91-0.797 3.47-1.697 3.47-2 0-1.257-3.68-0.369-6 1.449-3 2.339-2.18 2.517 2.53 0.551zm11.27-1.02c1.25-1.245-3.59-0.399-5.36 0.937-1.78 1.343-1.65 1.388 1.45 0.531 1.86-0.516 3.62-1.176 3.91-1.468zm-36.88-0.347l2.99-1.816-15.72-1.227c-32.9-2.566-59.73-6.868-94.26-15.105-58.28-13.907-111.83-22.407-174.09-27.628-12.06-1.013-33.65-1.648-62.03-1.828-23.93-0.151-38.35-0.123-32.01 0.061 74.52 2.174 153.97 13.005 248.67 33.9 40.9 9.026 61.17 12.175 92.5 14.368 21.36 1.495 30.62 1.297 33.95-0.725zm9.07 0.316l2.5-1.429-2.5-4e-3c-1.38-2e-3 -3.37 0.657-4.44 1.464-1.92 1.454-1.92 1.468 0 1.433 1.07-0.019 3.06-0.678 4.44-1.464zm36.02 0.5c1.24-0.803 1.16-0.969-0.5-0.969-1.1 0-2.67 0.436-3.5 0.969-1.25 0.803-1.17 0.969 0.5 0.969 1.1 0 2.67-0.436 3.5-0.969zm8 0c1.83-1.181 0.25-1.181-2.5 0-1.32 0.567-1.49 0.878-0.5 0.914 0.83 0.031 2.17-0.381 3-0.914zm9.01 0c1.29-0.835 1.27-0.971-0.19-0.985-0.94-8e-3 -1.98 0.435-2.32 0.985-0.78 1.266 0.54 1.266 2.51 0zm-574.41-1.631l2.33-1.632-2.998-1.897c-2.516-1.592-3.419-1.706-5.609-0.708-3.284 1.495-3.267 1.998 0.14 4.11 3.406 2.11 3.307 2.108 6.137 0.127zm-16.024-0.753l2.368-1.312-3.089-2.199c-2.784-1.981-3.353-2.062-5.735-0.815l-2.645 1.385 2.751 2.163c3.186 2.505 3.225 2.51 6.35 0.778zm-16.042-1.981l2.335-1.295-2.65-1.735c-1.874-1.228-3.57-1.534-5.792-1.046l-3.144 0.69 2.764 2.376c3.17 2.725 3.343 2.752 6.487 1.01zm598.47-0.135c2.29-1.306 2.32-1.432 0.44-1.465-1.13-0.019-2.93 0.626-4 1.433-2.62 1.98 0.11 2.004 3.56 0.032zm9.01 0c1.44-0.826 1.87-1.429 1-1.429-0.83 0-2.62 0.643-4.01 1.429-1.44 0.826-1.87 1.429-1 1.429 0.83 0 2.63-0.643 4.01-1.429zm9.08 0.5c0.51 0 0.92-0.408 0.92-0.906 0-1.164-3.83-0.186-4.68 1.197-0.41 0.659 0 0.8 1.1 0.379 0.96-0.369 2.16-0.67 2.66-0.67zm9.07-0.788c-0.73-0.24-1.8 0.038-2.38 0.62-0.74 0.742-0.35 0.872 1.31 0.437 1.36-0.354 1.82-0.807 1.07-1.057zm-63.98-0.813c2.29-1.187 2.74-1.815 1.75-2.43-1.38-0.853-2.97-0.255-6.45 2.426-1.83 1.413-1.85 1.544-0.2 1.573 0.99 0.018 3.19-0.688 4.9-1.569zm10.11-0.099c2.37-1.256 2.76-1.793 1.52-2.06-1.6-0.342-7.82 2.274-7.82 3.286 0 1.023 3.26 0.39 6.3-1.226zm9.7 0.2l2.5-1.429h-2.5c-1.38 0-3.62 0.643-5 1.429l-2.5 1.429h2.5c1.38 0 3.62-0.643 5-1.429zm8.57 0.032c2.62-1.98-0.11-2.004-3.56-0.032-2.3 1.306-2.33 1.432-0.44 1.465 1.13 0.019 2.93-0.626 4-1.433zm45.19 0.864c-0.33-0.332-1.2-0.368-1.92-0.079-0.8 0.319-0.56 0.556 0.61 0.604 1.05 0.043 1.64-0.193 1.31-0.525zm-595.96-1.431c2.689-1.439 2.42-2.521-0.976-3.927-2.172-0.9-3.442-0.921-5.002-0.087-2.69 1.439-2.644 1.686 0.659 3.477 3.365 1.824 2.983 1.786 5.319 0.537zm514.69-0.965c1.65-1.093 2.48-1.99 1.85-1.993-0.64-4e-3 -7.39-0.694-15.01-1.534-32.04-3.533-53.31-7.426-89.89-16.456-54.79-13.525-99.5-20.491-157.58-24.548-25.1-1.753-92.1-2.137-110.06-0.631-7.58 0.636-4.02 0.829 17.62 0.955 74.62 0.431 156.07 10.763 237.01 30.064 33.63 8.02 55.78 11.722 87.04 14.551 21.91 1.982 25.49 1.932 29.02-0.408zm-529.58-0.35c1.542-1.172 1.437-1.438-1.176-2.981-2.38-1.405-3.322-1.488-5.516-0.489l-2.646 1.205 2.322 1.785c2.74 2.108 4.697 2.242 7.016 0.48zm-16.367-1.015l2.335-1.295-2.581-1.69c-2.5-1.638-7.592-1.412-7.592 0.336 0 0.75 4.004 3.892 5.003 3.926 0.275 9e-3 1.55-0.565 2.835-1.277zm618.48-0.135c1.44-0.826 1.87-1.429 1-1.429-0.83 0-2.62 0.643-4.01 1.429-1.44 0.826-1.87 1.429-1 1.429 0.83 0 2.63-0.643 4.01-1.429zm9 0.5c1.33-0.862 1.33-0.963 0-0.914-0.83 0.03-2.4 0.441-3.5 0.914l-2 0.859 2 0.055c1.1 0.031 2.67-0.381 3.5-0.914zm9.51 0c1.26-0.542 1.45-0.859 0.5-0.859-0.83 0-2.41 0.386-3.51 0.859-1.26 0.542-1.45 0.859-0.5 0.859 0.83 0 2.41-0.386 3.51-0.859zm-44.33-3.761c-2.04-0.688-7.59 1.904-6.08 2.837 0.7 0.43 2.63 0.067 4.32-0.81 1.82-0.942 2.53-1.767 1.76-2.027zm7.81 2.261c2.21-1.262 2.27-1.429 0.5-1.429-1.1 0-3.12 0.643-4.5 1.429-2.22 1.262-2.28 1.429-0.5 1.429 1.1 0 3.12-0.643 4.5-1.429zm9.5 0.5c1.83-0.787 1.79-0.864-0.5-0.914-1.38-0.031-3.17 0.381-4 0.914-1.24 0.8-1.15 0.96 0.5 0.914 1.1-0.03 2.9-0.441 4-0.914zm-626.26-1.018l2.678-1.018-2.561-2.014c-1.782-1.401-3.34-1.819-5.115-1.374-3.122 0.784-3.15 1.105-0.302 3.48 2.711 2.26 2.079 2.15 5.3 0.926zm598.62-0.365c1.73-0.96 1.99-1.458 0.96-1.851-0.77-0.297-2.96 0.291-4.87 1.306-3.22 1.712-3.29 1.845-0.96 1.851 1.38 4e-3 3.57-0.585 4.87-1.306zm249.52 0.727c-0.68-0.274-2.03-0.291-3-0.037-0.97 0.253-0.42 0.478 1.23 0.498s2.45-0.187 1.77-0.461zm-808.22-1.505l2.549-1.16-2.995-1.821c-2.458-1.493-3.45-1.614-5.521-0.671l-2.525 1.15 2.768 1.825c3.294 2.171 2.62 2.091 5.724 0.677zm16.403-0.212l2.35-1.303-3.145-1.302c-2.511-1.039-3.689-1.054-5.84-0.075l-2.695 1.227 2.491 1.378c3.079 1.704 3.885 1.713 6.839 0.075zm523.73-0.5c2.33-1.532 2.54-1.97 1.19-2.486-0.96-0.366-3.17 0.412-5.31 1.866-3.43 2.334-3.51 2.493-1.18 2.486 1.36-4e-3 3.75-0.843 5.3-1.866zm9.56 0.49c1.73-0.96 1.99-1.458 0.96-1.851-0.77-0.297-2.96 0.291-4.87 1.306-3.21 1.712-3.28 1.845-0.96 1.851 1.37 4e-3 3.57-0.585 4.87-1.306zm72.67 0.383l2-0.859-2-0.055c-1.11-0.031-2.68 0.381-3.51 0.914-1.33 0.862-1.33 0.963 0 0.914 0.83-0.03 2.4-0.441 3.51-0.914zm10 0c1.26-0.542 1.45-0.859 0.5-0.859-0.83 0-2.4 0.386-3.5 0.859-1.26 0.542-1.45 0.859-0.5 0.859 0.83 0 2.4-0.386 3.5-0.859zm9.23 0.396c-0.33-0.332-1.2-0.368-1.92-0.079-0.8 0.319-0.56 0.556 0.61 0.604 1.05 0.043 1.64-0.193 1.31-0.525zm182.1 0c-0.33-0.332-1.2-0.368-1.93-0.079-0.8 0.319-0.56 0.556 0.61 0.604 1.06 0.043 1.65-0.193 1.32-0.525zm7.27-0.396c0-0.55-0.42-1-0.94-1s-1.22 0.45-1.56 1 0.08 1 0.94 1 1.56-0.45 1.56-1zm-846.67-1.32l2.251-1.25-2.982-1.76c-2.414-1.425-3.398-1.538-5.165-0.593l-2.184 1.168 2.415 1.855c2.847 2.188 2.781 2.181 5.665 0.58zm546.95-0.623l2.92-1.93-2.42-0.498c-1.34-0.273-9.18-1.456-17.44-2.628-29.67-4.214-49.48-8.44-89.04-18.993-61.6-16.434-146-24.51-220.11-21.064-37.64 1.751-46.34 2.846-18.01 2.268 33.31-0.678 83.19 1.792 118.06 5.846 43.12 5.015 76 11.044 117.56 21.553 26.45 6.689 47.33 10.66 72.93 13.868 10.79 1.35 20.96 2.628 22.61 2.838 6.97 0.889 10.15 0.578 12.94-1.26zm73.11 0.479c2.32-1.063 2.55-1.384 1-1.419-1.1-0.026-3.12 0.597-4.51 1.383-3.21 1.835-0.49 1.863 3.51 0.036zm10 0.464l2-0.859h-2c-1.1 0-2.9 0.386-4 0.859l-2 0.859h2c1.1 0 2.9-0.386 4-0.859zm185.85 0.296c-1.23-0.237-3.48-0.243-5-0.014-1.52 0.23-0.51 0.425 2.24 0.432s3.99-0.181 2.76-0.418zm37.01 0.042c-0.69-0.278-1.81-0.278-2.5 0-0.69 0.277-0.13 0.504 1.25 0.504s1.94-0.227 1.25-0.504zm7.26-0.338c-0.34-0.55-1.29-1-2.13-1-0.82 0-1.22 0.45-0.88 1s1.3 1 2.13 1c0.82 0 1.22-0.45 0.88-1zm-248.63-1.5c2.21-1.262 2.27-1.429 0.5-1.429-1.1 0-3.12 0.643-4.5 1.429-2.21 1.262-2.27 1.429-0.5 1.429 1.1 0 3.12-0.643 4.5-1.429zm56.95-0.141c1-0.865-3.57-0.227-4.92 0.687-1.1 0.741-0.69 0.834 1.5 0.344 1.65-0.369 3.19-0.833 3.42-1.031zm7.33 0.979c-0.69-0.278-1.81-0.278-2.5 0-0.69 0.277-0.13 0.504 1.25 0.504s1.94-0.227 1.25-0.504zm118.08 6e-3c-0.68-0.274-2.03-0.291-3-0.037-0.97 0.253-0.42 0.477 1.23 0.498 1.65 0.02 2.45-0.187 1.77-0.461zm29-6e-3c-0.69-0.278-1.81-0.278-2.5 0-0.69 0.277-0.13 0.504 1.25 0.504s1.94-0.227 1.25-0.504zm7.48 0.058c-0.33-0.332-1.2-0.368-1.92-0.079-0.8 0.319-0.56 0.556 0.61 0.604 1.05 0.043 1.64-0.193 1.31-0.525zm35.54-0.058c-0.69-0.278-1.81-0.278-2.5 0-0.69 0.277-0.13 0.504 1.25 0.504s1.94-0.227 1.25-0.504zm6.25-0.338c0.34-0.558-0.4-0.993-1.69-0.985-1.86 0.013-2.02 0.205-0.81 0.985 1.86 1.202 1.76 1.202 2.5 0zm-887.06-0.906c2.303-1.458-3.225-4.477-6.629-3.62l-2.758 0.695 2.362 1.915c2.549 2.068 4.834 2.397 7.025 1.01zm607.72-0.755c1.87-0.973 2.66-1.843 1.9-2.1-1.79-0.605-7.3 1.787-6.63 2.877 0.74 1.19 1.03 1.142 4.73-0.777zm10.27 0.193c1.91-1.449 1.91-1.468-0.06-1.465-1.1 2e-3 -3.13 0.647-4.5 1.433l-2.51 1.429 2.57 0.036c1.41 0.019 3.43-0.626 4.5-1.433zm54.97 0.468l2-0.859h-2c-1.11 0-2.91 0.386-4.01 0.859l-2 0.859h2c1.1 0 2.9-0.386 4.01-0.859zm47.25 0.396c-0.33-0.332-1.2-0.368-1.92-0.079-0.8 0.319-0.56 0.556 0.61 0.604 1.05 0.043 1.64-0.193 1.31-0.525zm71.57-0.052c-0.68-0.274-2.03-0.291-3-0.037-0.97 0.253-0.42 0.478 1.23 0.498s2.45-0.187 1.77-0.461zm29.01-0.048c-1.23-0.237-3.48-0.243-5-0.014-1.52 0.23-0.51 0.424 2.24 0.432 2.75 7e-3 3.99-0.181 2.76-0.418zm30.48 0.1c-0.33-0.332-1.2-0.368-1.92-0.079-0.8 0.319-0.56 0.556 0.61 0.604 1.05 0.043 1.64-0.193 1.31-0.525zm6.78-0.396c-0.34-0.55-1.04-1-1.56-1s-0.94 0.45-0.94 1 0.7 1 1.56 1 1.28-0.45 0.94-1zm36.02 0c-0.34-0.55-1.61-0.993-2.82-0.985-1.78 0.013-1.91 0.197-0.69 0.985 1.97 1.273 4.3 1.273 3.51 0zm-855.6-1.452c1.758-1.332 1.744-1.437-0.344-2.554-2.238-1.197-6.993-0.604-6.993 0.872 0 0.727 3.644 2.937 5.003 3.035 0.275 0.019 1.325-0.59 2.334-1.353zm16.071 0.152c1.657-1.211 1.602-1.38-0.81-2.479-1.974-0.898-3.195-0.902-5.144-0.014l-2.557 1.164 2.307 1.279c2.954 1.639 4.018 1.647 6.204 0.05zm544.87-0.7c3.48-1.905 3.48-1.916 0.77-1.958-1.49-0.023-4.19 0.856-6 1.954-3.14 1.915-3.17 1.995-0.77 1.958 1.38-0.021 4.08-0.9 6-1.954zm64.53 1l2-0.859h-2c-1.1 0-2.9 0.386-4 0.859l-2 0.859h2c1.1 0 2.9-0.386 4-0.859zm66.04-7.111c28.36-6.874 71.24-15.874 75.76-15.904 1.73-0.012 1.94-0.231 0.86-0.911-1.71-1.08-3.66-0.817-26.32 3.563-24.54 4.743-82.04 19.143-83.69 20.961-0.35 0.383 0.49 0.388 1.87 0.01 1.37-0.379 15.56-3.852 31.52-7.719zm4.35 2.672c13.57-2.992 35.7-7.535 49.17-10.096 25.14-4.773 33.49-6.97 22.71-5.973-11.1 1.028-95.79 19.335-97.66 21.111-0.8 0.769 1.35 0.348 25.78-5.042zm-9.13 4.835c-0.33-0.332-1.2-0.368-1.92-0.079-0.8 0.319-0.56 0.556 0.61 0.604 1.05 0.043 1.64-0.193 1.31-0.525zm15.01 0c-0.33-0.332-1.2-0.368-1.92-0.079-0.8 0.319-0.56 0.556 0.61 0.604 1.05 0.043 1.64-0.193 1.31-0.525zm17.55-0.052c-0.68-0.274-2.03-0.291-3-0.037-0.97 0.253-0.42 0.478 1.23 0.498s2.45-0.187 1.77-0.461zm19.49-0.033c-0.96-0.252-2.54-0.252-3.5 0-0.96 0.251-0.17 0.457 1.75 0.457s2.71-0.206 1.75-0.457zm24.02 2e-3c-0.95-0.251-2.75-0.26-4-0.021-1.24 0.24-0.46 0.444 1.74 0.456 2.2 0.011 3.22-0.185 2.26-0.435zm33.72-0.243c0.34-0.555-1.75-0.701-5.19-0.362-7.58 0.745-8 1.292-1 1.292 3.09 0 5.87-0.418 6.19-0.93zm29.28 0.326c-0.33-0.333-1.2-0.368-1.92-0.079-0.8 0.319-0.56 0.556 0.61 0.604 1.05 0.043 1.64-0.193 1.31-0.525zm5.78-0.396c0.34-0.55-0.11-1-1-1s-1.34 0.45-1 1 0.79 1 1 1 0.66-0.45 1-1zm29.51 0c-1.97-1.273-4.29-1.273-3.5 0 0.34 0.55 1.6 0.993 2.81 0.985 1.78-0.013 1.91-0.197 0.69-0.985zm-916-0.624c1.489-0.571 1.483-0.781-0.073-2.5-1.784-1.97-5.867-2.533-6.849-0.944-0.316 0.512 0.432 1.637 1.665 2.5 2.505 1.753 2.943 1.832 5.257 0.944zm39.641-0.376c1.79 0 0.885-1.695-1.482-2.772-2.41-1.098-6.604-0.63-6.604 0.736 0 1.122 4.334 2.956 5.835 2.469 0.732-0.238 1.746-0.433 2.251-0.433zm567.2-1l3.5-1.916-2.8-0.042c-2.6-0.039-8.71 2.405-8.71 3.484 0 1.142 4.81 0.227 8.01-1.526zm56.03-0.091c1.18-0.667 1.04-0.855-0.67-0.879-2.88-0.04-5.34 0.951-5.34 2.144 0 0.976 3.25 0.29 6.01-1.265zm9 1.091c1.24-0.8 1.15-0.96-0.5-0.914-1.1 0.03-2.9 0.441-4 0.914-1.83 0.787-1.79 0.864 0.5 0.914 1.38 0.031 3.17-0.381 4-0.914zm48.88-3.491c24-6.779 61.84-15.898 78.68-18.96 8.26-1.5 15.91-3.107 17.01-3.571 1.94-0.818 1.94-0.845-0.15-0.91-3.47-0.11-24.6 3.697-41.73 7.516-14.5 3.232-63.71 16.847-69.67 19.271-5.52 2.244 0.8 0.913 15.86-3.346zm57.67-1.888c15.96-3.044 34.78-6.525 41.81-7.736 7.05-1.212 12.42-2.584 11.95-3.053s-8.47 0.524-17.8 2.207c-17.82 3.216-69.26 13.742-70.97 14.523-2.08 0.946 6.88-0.574 35.01-5.941zm-16.25 5.717c-0.69-0.278-1.82-0.278-2.51 0-0.69 0.277-0.13 0.504 1.25 0.504 1.39 0 1.95-0.227 1.26-0.504zm18.5-0.027c-0.96-0.252-2.54-0.252-3.5 0-0.96 0.251-0.17 0.457 1.75 0.457s2.72-0.206 1.75-0.457zm21.03 2e-3c-0.96-0.251-2.76-0.26-4.01-0.02-1.24 0.239-0.46 0.444 1.74 0.455 2.21 0.011 3.23-0.185 2.27-0.435zm33.46-0.371c10.25-1.054 13.44-1.649 12.69-2.365-0.21-0.207-6.7 0.431-14.4 1.417-15.51 1.986-14.4 2.603 1.71 0.948zm23.53 0.454c-0.33-0.333-1.2-0.368-1.92-0.079-0.8 0.319-0.56 0.556 0.61 0.604 1.05 0.043 1.64-0.193 1.31-0.525zm34.79-0.396c-0.34-0.55-1.29-1-2.12-1-0.82 0-1.22 0.45-0.88 1s1.29 1 2.12 1c0.82 0 1.22-0.45 0.88-1zm28.01 0c-0.34-0.55-1.29-1-2.12-1-0.82 0-1.22 0.45-0.88 1s1.29 1 2.12 1c0.82 0 1.23-0.45 0.88-1zm-898.48-3.773c-1.552-0.813-3.739-1.124-5.243-0.747l-2.58 0.647 2.821 1.85c2.278 1.493 3.289 1.638 5.243 0.747l2.422-1.102zm574.14 1.9c2.38-1.567 2.56-1.961 1.14-2.505-1.45-0.556-8.46 2.724-8.46 3.96 0 1.143 4.84 0.182 7.32-1.455zm54.85 0.412c2.35-1.024 2.76-1.468 1.36-1.486-3.02-0.039-6.5 1.068-6.5 2.064 0 1.245 1.26 1.103 5.14-0.578zm61.9-4.101c36.27-10.905 60.95-16.968 95.04-23.34 5.37-1.005 5.32-1.018-2.42-0.562-10.05 0.592-37.65 6.155-57.11 11.509-16.82 4.627-52.22 15.678-54.53 17.02-3.06 1.782 0.98 0.799 19.02-4.627zm87.24-0.246c19.1-3.177 35.08-6.156 35.52-6.62 0.43-0.464-1.68-0.53-4.71-0.148-5.08 0.641-63.63 11.088-67.03 11.959-6.12 1.568 6.25-0.204 36.22-5.191zm11.54 1.809c14.73-2.2 27.45-4.014 28.27-4.031 1.34-0.027 1.34-0.126 0-0.884-0.92-0.525-12.47 0.981-30.01 3.911-15.68 2.621-27.73 4.819-26.77 4.884 0.96 0.066 13.78-1.681 28.51-3.88zm13.58 1.6c9.79-1.312 18.09-2.659 18.43-2.994 1.03-1.036-3.59-0.559-22.74 2.354-22.81 3.465-19.95 3.889 4.31 0.64zm38.44 1.795c-0.33-0.332-1.2-0.368-1.92-0.079-0.8 0.319-0.56 0.556 0.61 0.604 1.05 0.043 1.64-0.193 1.31-0.525zm6.27-0.396c0-0.55-0.7-1-1.56-1s-1.28 0.45-0.94 1 1.04 1 1.56 1 0.94-0.45 0.94-1zm28.51 0c-0.34-0.55-1.29-1-2.12-1-0.82 0-1.22 0.45-0.88 1s1.29 1 2.12 1c0.82 0 1.22-0.45 0.88-1zm28.02 0c-0.34-0.55-1.29-1-2.12-1-0.82 0-1.22 0.45-0.88 1s1.29 1 2.12 1c0.82 0 1.22-0.45 0.88-1zm-339.76-1.75c1.69-0.962 3.08-1.997 3.08-2.3 0-0.302-3.93-1.113-8.74-1.802-23.89-3.418-61.96-12.138-92.3-21.142-34.64-10.278-80.04-17.295-129.06-19.953-19.29-1.045-74.79-0.512-93.55 0.899-22.16 1.666-39.58 3.324-39.17 3.727 0.21 0.213 7.98-0.074 17.28-0.637 69.93-4.235 159.94 3.544 220.13 19.024 55.01 14.149 64.82 16.266 98.91 21.345 19.91 2.967 19.7 2.959 23.42 0.839zm55.26 0.325c2.62-1.111 2.99-1.569 1.7-2.073-1.49-0.582-7.85 1.864-7.85 3.024 0 0.9 2.78 0.469 6.15-0.951zm61.78-4.649c23.76-7.75 49.45-15.159 64.14-18.493 14.34-3.255 32.27-6.433 36.31-6.433 1.67 0 2.73-0.315 2.34-0.699-1.94-1.949-30.78 2.671-54.16 8.681-15.08 3.875-64.61 19.795-68.32 21.961-3.88 2.26 1.87 0.795 19.69-5.017zm172.69 5.074c-0.34-0.55-1.29-1-2.12-1-0.82 0-1.22 0.45-0.88 1s1.29 1 2.12 1c0.82 0 1.22-0.45 0.88-1zm28.52 0.607c0-0.216-0.67-0.652-1.5-0.969-0.83-0.316-1.5-0.139-1.5 0.393 0 0.533 0.67 0.969 1.5 0.969s1.5-0.177 1.5-0.393zm5.5-0.607c0.34-0.558-0.4-0.993-1.69-0.985-1.86 0.013-2.02 0.205-0.81 0.985 1.86 1.202 1.76 1.202 2.5 0zm21.51 0c-1.96-1.266-3.28-1.266-2.5 0 0.34 0.55 1.38 0.993 2.31 0.985 1.46-0.014 1.48-0.15 0.19-0.985zm-924.38-1c1.993 0 0.759-1.823-2.009-2.97-1.931-0.799-3.507-0.888-4.625-0.263-1.528 0.855-1.462 1.112 0.67 2.605 1.3 0.911 2.968 1.425 3.705 1.142s1.753-0.514 2.259-0.514zm54.447-0.378c1.771-1.294 1.693-1.421-1.287-2.075-1.745-0.383-4.165-0.381-5.379 3e-3 -2.126 0.675-2.099 0.748 0.728 1.994 3.82 1.683 3.743 1.682 5.938 0.078zm16.003 5e-3c1.81-1.325 1.8-1.398-0.34-2.075-1.21-0.385-3.63-0.389-5.362-8e-3l-3.159 0.694 2.432 1.346c3.109 1.721 4.119 1.728 6.429 0.043zm555.78-0.627c3.46-1.894 3.47-1.917 0.8-1.958-3.31-0.051-7.93 1.937-7.21 3.104 0.79 1.286 2.54 0.974 6.41-1.146zm73.54-8.733c31.78-10.803 60.02-18.288 79.84-21.169 13.01-1.892 18.4-3.467 8.59-2.511-21.76 2.121-45.13 7.075-70.42 14.926-17.14 5.32-49.54 17.206-51.03 18.723-1.64 1.662 2.26 0.485 33.02-9.969zm146.07 9.733c-0.34-0.55-1.07-1-1.62-1s-0.72 0.45-0.38 1 1.07 1 1.62 1 0.72-0.45 0.38-1zm29.51 0.607c0-0.216-0.67-0.652-1.5-0.969-0.83-0.316-1.5-0.139-1.5 0.393 0 0.533 0.67 0.969 1.5 0.969s1.5-0.177 1.5-0.393zm33.02-0.607c0-0.55-0.79-0.993-1.75-0.985-1.5 0.013-1.53 0.157-0.25 0.985 1.89 1.22 2 1.22 2 0zm21.01 0c-1.96-1.266-3.28-1.266-2.5 0 0.34 0.55 1.38 0.993 2.31 0.985 1.46-0.014 1.48-0.15 0.19-0.985zm-890.56-0.908c2.133-1.35-2.223-3.296-5.525-2.468-2.525 0.633-2.573 0.75-0.83 2.024 2.122 1.551 4.36 1.707 6.355 0.444zm577.69-0.978c3.34-1.704 3.49-1.942 1.53-2.453-2.68-0.7-8.37 2.368-6.55 3.527 0.68 0.43 1.25 0.788 1.27 0.797 0.02 8e-3 1.7-0.834 3.75-1.871zm54.24-2.635c42.83-16.545 74.94-25.812 103.81-29.962l10.25-1.474-9.39 0.524c-25.35 1.417-58.94 10.425-101.32 27.169-9.21 3.64-16.52 6.989-16.24 7.442 0.68 1.108-0.22 1.368 12.89-3.699zm181.59 4.08c0-1.055-1.92-1.499-2.49-0.575-0.35 0.559 0.07 1.016 0.93 1.016s1.56-0.198 1.56-0.441zm28.27-0.221c-0.69-0.278-1.81-0.278-2.5 0-0.69 0.277-0.13 0.504 1.25 0.504s1.94-0.227 1.25-0.504zm6.25-0.338c-0.34-0.55-1.29-1-2.12-1-0.82 0-1.22 0.45-0.88 1s1.29 1 2.12 1c0.82 0 1.22-0.45 0.88-1zm27.01 0c-0.34-0.55-1.38-0.993-2.31-0.985-1.46 0.014-1.48 0.15-0.19 0.985 1.96 1.266 3.28 1.266 2.5 0zm20.51 0c-1.96-1.266-3.28-1.266-2.5 0 0.34 0.55 1.38 0.993 2.31 0.985 1.46-0.014 1.48-0.15 0.19-0.985zm-949.47-2.081c0-1.203-3.491-2.919-5.937-2.919-2.694 0-2.63 1.382 0.151 3.228 2.221 1.474 5.786 1.284 5.786-0.309zm38.364 1.214c1.649-0.648 1.563-0.854-0.808-1.934-1.459-0.665-3.767-0.929-5.129-0.587-2.313 0.58-2.359 0.71-0.693 1.973 1.968 1.492 3.838 1.647 6.63 0.548zm585.96-3.97c-1.25-0.185-3.8 0.482-5.66 1.483-2.8 1.509-3.08 1.932-1.62 2.471 1.02 0.376 3.4-0.251 5.66-1.483 3.46-1.9 3.64-2.171 1.62-2.471zm248.84 4.233c-0.33-0.332-1.2-0.368-1.92-0.079-0.8 0.319-0.56 0.556 0.61 0.604 1.05 0.043 1.64-0.193 1.31-0.525zm6.27-0.396c0-0.55-0.7-1-1.56-1s-1.28 0.45-0.94 1 1.04 1 1.56 1 0.94-0.45 0.94-1zm28.52 0c-0.34-0.55-1.29-1-2.12-1-0.82 0-1.22 0.45-0.88 1s1.29 1 2.12 1c0.82 0 1.22-0.45 0.88-1zm26.01 0c-0.34-0.55-1.07-1-1.62-1s-0.72 0.45-0.38 1 1.07 1 1.62 1 0.72-0.45 0.38-1zm-911.58-0.876c1.725-0.677 1.67-0.868-0.696-2.417-1.766-1.157-3.261-1.427-4.783-0.863l-2.216 0.819 2.385 1.668c2.627 1.84 2.64 1.842 5.31 0.793zm660.48-5.687c40.72-16.714 74.55-26.178 106.53-29.799 1.92-0.218-1-0.198-6.5 0.044-25 1.101-55.06 8.892-92.05 23.85-24.54 9.925-29.7 12.337-26.49 12.41 1.38 0.032 9.71-2.895 18.51-6.505zm174.56 5.563c0-0.55-0.7-1-1.56-1s-1.28 0.45-0.94 1 1.04 1 1.56 1 0.94-0.45 0.94-1zm28.52 0c-0.34-0.55-1.29-1-2.12-1-0.82 0-1.22 0.45-0.88 1s1.29 1 2.12 1c0.82 0 1.22-0.45 0.88-1zm27.01 0c-0.34-0.55-1.38-0.993-2.31-0.985-1.46 0.014-1.48 0.15-0.19 0.985 1.96 1.266 3.28 1.266 2.5 0zm26.01 0c-0.34-0.55-1.07-1-1.62-1s-0.72 0.45-0.38 1 1.07 1 1.62 1 0.72-0.45 0.38-1zm-877.43-0.96c1.882-0.771 1.844-0.882-0.644-1.864-1.453-0.575-3.647-0.782-4.875-0.462l-2.231 0.584 2.374 1.315c2.733 1.515 2.72 1.514 5.376 0.427zm16.286 0.118c2.197-1.393-2.831-3.061-5.781-1.918-2.379 0.923-2.403 1.01-0.5 1.795 2.625 1.082 4.705 1.123 6.281 0.123zm14.648 0.235c0.87-0.334 1.58-0.956 1.58-1.383 0-1.397-4.28-1.933-6.39-0.802-2.04 1.091-2.04 1.116-0.09 1.879 2.57 1.004 3.01 1.031 4.9 0.306zm521.73-1.282c3.25-1.734 3.29-1.829 1.07-2.41-1.52-0.398-3.71 0.231-6.39 1.837l-4.07 2.443 3-0.032c1.65-0.018 4.52-0.845 6.39-1.838zm58.79-4.988c37.25-16.152 71.47-26.844 95.94-29.977 5.52-0.709 6.09-0.919 2.74-1.02-11.31-0.338-38.59 5.48-60.44 12.89-12.54 4.25-37.15 14.33-50.9 20.842-14.75 6.991-4.83 4.846 12.66-2.735zm190.45 5.877c0-0.55-0.7-1-1.56-1-0.87 0-1.29 0.45-0.95 1s1.05 1 1.57 1 0.94-0.45 0.94-1zm27.51 0c-0.34-0.55-1.07-1-1.62-1s-0.72 0.45-0.38 1 1.07 1 1.62 1 0.72-0.45 0.38-1zm27.51 0c-1.96-1.266-3.28-1.266-2.5 0 0.34 0.55 1.38 0.993 2.31 0.985 1.46-0.014 1.48-0.15 0.19-0.985zm-910.45-1.956c0-1.318-4.765-2.919-6.971-2.342-2.128 0.556-2.119 0.602 0.493 2.314 2.491 1.633 6.478 1.65 6.478 0.028zm37.797 1.114c1.842-1.168-2.955-3.186-5.804-2.442l-2.224 0.582 2.374 1.315c2.783 1.542 3.911 1.651 5.654 0.545zm558.82-1.488l3.84-2.32-7.34-1.27c-22.12-3.83-59.15-12.971-83.29-20.562-37.94-11.928-69.01-17.541-113.92-20.576-22.78-1.54-89.27-0.676-110.27 1.434-33.81 3.396-38.54 3.941-38.09 4.384 0.25 0.254 7.57-0.146 16.27-0.89 23.53-2.013 94.44-1.731 118.37 0.47 47.8 4.397 73.31 9.054 115.06 21.001 25.47 7.291 46.74 12.221 71.53 16.58 16.78 2.951 21.05 3.681 23.01 3.938 0.55 0.072 2.72-0.913 4.83-2.189zm53.35-2.754c38.52-18.039 73.81-29.782 100.37-33.408 6.46-0.882 8.13-1.335 5.16-1.405-12.37-0.291-42.64 6.43-64.19 14.256-20.94 7.601-55.35 23.273-54.41 24.784 0.86 1.376 1.65 1.119 13.07-4.227zm211.46 4.084c-1.96-1.266-3.28-1.266-2.5 0 0.34 0.55 1.38 0.993 2.31 0.985 1.46-0.014 1.48-0.15 0.19-0.985zm27.51 0c-0.34-0.55-1.04-1-1.56-1s-0.94 0.45-0.94 1 0.7 1 1.56 1 1.28-0.45 0.94-1zm26.51 0c-1.96-1.266-3.28-1.266-2.5 0 0.34 0.55 1.38 0.993 2.31 0.985 1.46-0.014 1.48-0.15 0.19-0.985zm-892.11-1.04c0.642-0.022-0.088-0.721-1.625-1.554-1.627-0.882-3.684-1.232-4.926-0.838-2.113 0.67-2.11 0.689 0.293 2.022 1.333 0.74 3.023 1.135 3.756 0.878 0.733-0.258 1.858-0.486 2.502-0.508zm843.59 0.04c-0.34-0.55-1.07-1-1.62-1s-0.72 0.45-0.38 1 1.07 1 1.62 1 0.72-0.45 0.38-1zm27.51 0.559c0-0.243-0.45-0.719-1-1.059s-1-0.141-1 0.441 0.45 1.059 1 1.059 1-0.198 1-0.441zm5.51-0.559c-0.34-0.55-1.15-0.993-1.81-0.985-0.72 9e-3 -0.6 0.403 0.31 0.985 1.92 1.242 2.27 1.242 1.5 0zm26.51 0.607c0-0.216-0.7-0.661-1.55-0.989-0.89-0.341-1.29-0.173-0.94 0.393 0.58 0.951 2.49 1.406 2.49 0.596zm-864.1-1.642c0.643-0.02 0.087-0.635-1.234-1.367-1.322-0.732-3.302-1.096-4.401-0.809-1.938 0.506-1.942 0.562-0.127 1.888 1.029 0.752 2.484 1.132 3.232 0.845s1.887-0.538 2.53-0.557zm14.082 0.43c2.39-0.914 0.86-2.395-2.47-2.395-2.971 0-3.991 1.409-1.689 2.338 1.799 0.726 2.399 0.735 4.159 0.057zm571.18-7.36c37.87-18.155 70.63-28.857 97.75-31.926 4.12-0.467 5.91-0.908 3.97-0.979-10.06-0.37-35.8 4.332-52.34 9.562-19.02 6.015-46.47 17.774-64.69 27.715-5.21 2.844-5.98 3.552-3.9 3.57 1.43 0.013 10.07-3.561 19.21-7.942zm197.3 6.965c-0.34-0.55-1.07-1-1.62-1s-0.72 0.45-0.38 1 1.07 1 1.62 1 0.72-0.45 0.38-1zm28.51 0.607c0-0.216-0.67-0.652-1.5-0.969-0.83-0.316-1.5-0.139-1.5 0.393 0 0.533 0.67 0.969 1.5 0.969s1.5-0.177 1.5-0.393zm5-0.607c0-0.55-0.79-0.993-1.75-0.985-1.5 0.013-1.53 0.157-0.25 0.985 1.89 1.22 2 1.22 2 0zm26.52 0c-0.34-0.55-1.15-0.993-1.81-0.985-0.71 9e-3 -0.59 0.403 0.31 0.985 1.92 1.242 2.27 1.242 1.5 0zm-921.51-0.618c1.448-0.556 1.431-0.756-0.169-1.968-1.819-1.38-6.282-1.929-6.282-0.774 0 0.741 3.182 3.281 4.17 3.328 0.368 0.018 1.393-0.246 2.281-0.586zm23.341-0.224c1.688-1.07-3.117-3.349-5.298-2.513-1.341 0.514-1.31 0.768 0.239 1.941 2.064 1.566 3.278 1.703 5.059 0.572zm39.125-0.065c1.02-0.645 0.564-1.056-1.726-1.558-3.598-0.79-6.162 0.216-4.017 1.575 1.74 1.102 3.987 1.095 5.743-0.017zm47.977 0.026c0.98-0.618 0.61-0.992-1.35-1.365-3.63-0.694-7.15 0.212-5.32 1.37 1.71 1.086 4.95 1.084 6.67-5e-3zm538.69-5.074c32.27-17.082 65.45-29.395 91.64-34.007 5.95-1.048 9.04-1.912 7-1.957-10.94-0.242-39.84 6.772-59.72 14.496-13.03 5.064-54.18 25.242-54.18 26.569 0 2.048 4.78 0.451 15.26-5.101zm218.58 5.351c-0.33-0.332-1.2-0.368-1.92-0.079-0.8 0.319-0.56 0.556 0.61 0.604 1.05 0.044 1.64-0.193 1.31-0.525zm32.79-0.396c-0.34-0.55-1.07-1-1.62-1s-0.72 0.45-0.38 1 1.07 1 1.62 1 0.72-0.45 0.38-1zm26.01 0c-0.34-0.55-1.15-0.993-1.81-0.985-0.71 9e-3 -0.59 0.403 0.31 0.985 1.92 1.242 2.27 1.242 1.5 0zm-880.44-0.639c2.371-0.91-0.096-2.335-4.004-2.314-2.855 0.016-2.907 0.088-1.06 1.485 2.183 1.65 2.701 1.735 5.064 0.829zm827.64 0.035c-0.33-0.332-1.2-0.368-1.92-0.079-0.8 0.319-0.56 0.556 0.61 0.604 1.05 0.043 1.64-0.193 1.31-0.525zm5.78-0.396c-0.34-0.55-1.38-0.993-2.31-0.985-1.46 0.014-1.48 0.15-0.19 0.985 1.96 1.266 3.28 1.266 2.5 0zm26.51 0c-0.83-0.533-1.95-0.969-2.5-0.969s-0.33 0.436 0.5 0.969 1.95 0.969 2.5 0.969 0.33-0.436-0.5-0.969zm-897.18-1c0.611 0 0.236-0.661-0.832-1.468-1.946-1.471-6.444-2.094-6.444-0.892 0 1.238 3.516 3.298 4.834 2.832 0.732-0.26 1.832-0.472 2.442-0.472zm78.098-0.063c0.643-0.035 0.09-0.495-1.227-1.022-1.318-0.527-3.344-0.657-4.503-0.288-2.076 0.659-2.077 0.68-0.105 1.451 1.101 0.43 2.601 0.589 3.334 0.352 0.732-0.236 1.858-0.459 2.501-0.493zm13.939-1.235c-1.18-0.527-2.97-0.627-3.96-0.223-1.7 0.691-1.69 0.781 0.17 1.474 1.1 0.405 2.88 0.506 3.97 0.222 1.9-0.497 1.89-0.548-0.18-1.473zm536.16-1.877c12.27-6.974 40.64-20.338 53.39-25.142 14.48-5.458 31.98-10.231 44.66-12.188l9.35-1.441-8.01 0.533c-28.49 1.897-65.93 15.37-105.05 37.807-7.21 4.139-7.69 4.592-4.84 4.599 1.88 4e-3 6.13-1.683 10.5-4.168zm220.45 3.175c-0.34-0.55-1.07-1-1.62-1s-0.72 0.45-0.38 1 1.07 1 1.62 1 0.72-0.45 0.38-1zm27.02 0c-0.34-0.55-1.07-1-1.62-1s-0.72 0.45-0.38 1 1.07 1 1.62 1 0.72-0.45 0.38-1zm27.51 0.607c0-0.216-0.7-0.661-1.55-0.989-0.89-0.341-1.29-0.173-0.94 0.393 0.58 0.951 2.49 1.406 2.49 0.596zm-881.62-2.142c-2.861-1.553-7.182-0.941-4.656 0.659 0.734 0.465 2.685 0.834 4.336 0.821l3.001-0.025-2.681-1.455zm24.027-0.588c-0.734-0.466-2.686-0.837-4.337-0.826l-3.002 0.02 2.404 1.331c2.656 1.471 7.304 0.976 4.935-0.525zm15.673 1.123c-0.34-0.55-2.055-0.993-3.811-0.985-2.429 0.012-2.834 0.247-1.692 0.985 1.984 1.282 6.295 1.282 5.503 0zm47.989 0.089c1.75-0.68 1.64-0.837-0.93-1.327-3.7-0.706-6.34 0.117-4.37 1.362 1.58 1.005 2.66 0.997 5.3-0.035zm745.41-0.089c-0.34-0.55-1.38-0.993-2.31-0.985-1.47 0.014-1.49 0.15-0.19 0.985 1.96 1.266 3.28 1.266 2.5 0zm27.51 0.607c0-0.216-0.7-0.661-1.55-0.989-0.89-0.341-1.29-0.173-0.94 0.393 0.58 0.951 2.49 1.406 2.49 0.596zm-22.51-1.607c-0.34-0.55-1.07-1-1.62-1s-0.72 0.45-0.38 1 1.07 1 1.62 1 0.72-0.45 0.38-1zm32.52 0c0-0.55-0.48-1-1.07-1-0.58 0-0.78 0.45-0.44 1s0.82 1 1.07 1c0.24 0 0.44-0.45 0.44-1zm-908.58-0.908c1.103-0.698 0.934-1.119-0.828-2.062-1.218-0.651-2.924-0.912-3.791-0.579-1.372 0.526-1.33 0.79 0.328 2.045 2.255 1.705 2.488 1.738 4.291 0.596zm22.685-0.624c-2.213-1.673-4.182-1.89-5.008-0.553-0.69 1.116 1.1 1.911 4.449 1.974 2.412 0.046 2.432-5e-3 0.559-1.421zm23.157 0.106c-0.99-0.749-2.715-1.123-3.837-0.829-2.65 0.692-0.466 2.232 3.133 2.208 2.324-0.015 2.374-0.113 0.704-1.379zm39.316 0.426c1.1-0.711 0.434-0.955-2.502-0.914-3.144 0.043-3.572 0.239-2.001 0.914 2.633 1.131 2.752 1.131 4.503 0zm16.51 0c0.37-0.601-0.9-0.994-3.19-0.985-2.834 0.012-3.429 0.265-2.315 0.985 1.955 1.264 4.725 1.264 5.505 0zm14.97-1.013c-1.07-0.373-2.82-0.446-3.9-0.164-1.93 0.504-1.93 0.525-0.03 1.19 1.06 0.373 2.81 0.446 3.9 0.164 1.93-0.504 1.93-0.525 0.03-1.19zm765.92 1.62c0-0.216-0.7-0.661-1.55-0.989-0.89-0.341-1.29-0.173-0.94 0.393 0.58 0.951 2.49 1.406 2.49 0.596zm-812.91-1.607c-0.34-0.55-1.83-0.993-3.311-0.985-2.106 0.012-2.365 0.227-1.191 0.985 1.977 1.277 5.291 1.277 4.502 0zm63.528 0c1.1-0.711 0.43-0.955-2.5-0.914-3.14 0.043-3.57 0.239-2 0.914 2.63 1.131 2.75 1.131 4.5 0zm727.37 0c-1.96-1.266-3.29-1.266-2.5 0 0.34 0.55 1.38 0.993 2.31 0.985 1.46-0.014 1.48-0.15 0.19-0.985zm32.51 0c-0.34-0.55-1.07-1-1.62-1s-0.72 0.45-0.38 1 1.07 1 1.62 1 0.72-0.45 0.38-1zm-885.44-0.639c2.233-0.857-8e-3 -2.337-3.504-2.314-2.414 0.016-2.434 0.067-0.559 1.485 2.258 1.707 1.942 1.642 4.063 0.829zm23.51-0.361c-0.826-0.533-2.627-0.969-4.002-0.969-1.98 0-2.188 0.202-1.001 0.969 0.826 0.533 2.626 0.969 4.002 0.969 1.98 0 2.188-0.202 1.001-0.969zm23.011 0c-0.825-0.533-2.626-0.969-4.002-0.969-1.98 0-2.188 0.202-1 0.969 0.825 0.533 2.626 0.969 4.002 0.969 1.98 0 2.188-0.202 1-0.969zm812.41 0.607c0-0.216-0.7-0.661-1.55-0.989-0.89-0.341-1.29-0.173-0.94 0.393 0.58 0.951 2.49 1.406 2.49 0.596zm32.01 0c0-0.216-0.7-0.661-1.55-0.989-0.89-0.341-1.29-0.173-0.94 0.393 0.58 0.951 2.49 1.406 2.49 0.596zm-821.41-1.607c-1.971-1.273-4.29-1.273-3.502 0 0.34 0.55 1.605 0.993 2.81 0.985 1.782-0.013 1.911-0.197 0.692-0.985zm15.757 0.311c-0.962-0.252-2.539-0.252-3.501 0-0.963 0.251-0.175 0.457 1.751 0.457 1.925 0 2.713-0.206 1.75-0.457zm16.009 0c-0.96-0.252-2.54-0.252-3.5 0-0.96 0.251-0.17 0.457 1.75 0.457s2.71-0.206 1.75-0.457zm16.26-0.311c1.14-0.734 0.7-0.973-1.81-0.985-1.95-9e-3 -3.06 0.394-2.69 0.985 0.78 1.256 2.56 1.256 4.5 0zm751.87 0c-0.34-0.55-1.15-0.993-1.81-0.985-0.71 9e-3 -0.59 0.403 0.31 0.985 1.92 1.242 2.27 1.242 1.5 0zm-862.2-1.584c-1.525-0.828-3.262-1.204-3.857-0.835-1.532 0.946 1.001 2.395 4.132 2.364l2.501-0.025-2.776-1.504zm23.286 0.584c-1.977-1.277-5.292-1.277-4.502 0 0.34 0.55 1.83 0.993 3.31 0.985 2.107-0.012 2.366-0.227 1.192-0.985zm23.012 0c-1.971-1.273-4.29-1.273-3.502 0 0.34 0.55 1.605 0.993 2.81 0.985 1.782-0.013 1.911-0.197 0.692-0.985zm80.04 0c1.16-0.753 0.87-0.973-1.31-0.985-1.62-9e-3 -2.55 0.408-2.19 0.985 0.77 1.242 1.58 1.242 3.5 0zm714.86 0c-0.34-0.55-1.15-0.993-1.81-0.985-0.72 9e-3 -0.6 0.403 0.31 0.985 1.92 1.242 2.27 1.242 1.5 0zm-862.93-0.893c0-1.055-2.481-2.12-4.835-2.075-1.44 0.027-1.401 0.233 0.273 1.5 2.168 1.639 4.562 1.941 4.562 0.575zm53.026-0.107c0-0.55-1.238-0.968-2.751-0.93-2.439 0.063-2.524 0.168-0.751 0.93 2.733 1.174 3.502 1.174 3.502 0zm39.289 0.344c-0.678-0.274-2.028-0.291-3.002-0.037-0.973 0.253-0.419 0.478 1.232 0.498s2.447-0.187 1.77-0.461zm14.989-6e-3c-0.69-0.277-1.81-0.277-2.5 0s-0.13 0.504 1.25 0.504 1.94-0.227 1.25-0.504zm16.01 0c-0.69-0.277-1.81-0.277-2.5 0s-0.13 0.504 1.25 0.504 1.94-0.227 1.25-0.504zm744.62-0.338c-0.34-0.55-1.15-0.993-1.81-0.985-0.71 9e-3 -0.59 0.403 0.31 0.985 1.92 1.242 2.27 1.242 1.5 0zm-837.92-1c-1.977-1.277-5.292-1.277-4.503 0 0.341 0.55 1.83 0.993 3.311 0.985 2.106-0.012 2.365-0.227 1.192-0.985zm45.272 0.338c-0.688-0.278-1.813-0.278-2.501 0-0.688 0.277-0.125 0.504 1.251 0.504 1.375 0 1.939-0.227 1.25-0.504zm64.057 6e-3c-0.69-0.274-2.04-0.291-3.01-0.037-0.97 0.253-0.42 0.477 1.23 0.498 1.66 0.02 2.46-0.187 1.78-0.461zm735.09 0.263c0-0.216-0.7-0.661-1.55-0.989-0.89-0.341-1.29-0.173-0.94 0.393 0.58 0.951 2.49 1.406 2.49 0.596zm-867.43-1.607c-0.825-0.533-2.401-0.969-3.502-0.969-1.656 0-1.742 0.166-0.5 0.969 0.826 0.533 2.401 0.969 3.502 0.969 1.657 0 1.743-0.166 0.5-0.969zm30.515 0c-0.34-0.55-1.604-0.993-2.81-0.985-1.782 0.013-1.911 0.197-0.691 0.985 1.971 1.273 4.289 1.273 3.501 0zm22.762 0.338c-0.689-0.278-1.813-0.278-2.502 0-0.688 0.277-0.125 0.504 1.251 0.504s1.939-0.227 1.251-0.504zm23.49 0.058c-0.332-0.332-1.195-0.368-1.918-0.079-0.797 0.319-0.56 0.556 0.606 0.604 1.054 0.043 1.645-0.193 1.312-0.525zm15.008 0c-0.332-0.332-1.196-0.368-1.918-0.079-0.797 0.319-0.56 0.556 0.605 0.604 1.055 0.043 1.645-0.193 1.313-0.525zm16.006 0c-0.33-0.332-1.2-0.368-1.92-0.079-0.8 0.319-0.56 0.556 0.61 0.604 1.05 0.043 1.64-0.193 1.31-0.525zm40.54-0.058c-0.69-0.278-1.81-0.278-2.5 0-0.69 0.277-0.13 0.504 1.25 0.504s1.94-0.227 1.25-0.504zm-140.32-1.338c-0.825-0.533-2.401-0.969-3.502-0.969-1.656 0-1.743 0.166-0.5 0.969 0.826 0.533 2.401 0.969 3.502 0.969 1.657 0 1.743-0.166 0.5-0.969zm29.515 0c-0.34-0.55-1.38-0.993-2.31-0.985-1.458 0.014-1.485 0.15-0.191 0.985 1.959 1.266 3.283 1.266 2.501 0zm813.9 0.607c0-0.216-0.7-0.661-1.55-0.989-0.89-0.341-1.29-0.173-0.94 0.393 0.58 0.951 2.49 1.406 2.49 0.596zm-835.91-1.607c-0.34-0.55-1.605-0.993-2.811-0.985-1.781 0.013-1.91 0.197-0.691 0.985 1.971 1.273 4.289 1.273 3.502 0zm846.42 0c-0.34-0.55-1.15-0.993-1.81-0.985-0.71 9e-3 -0.59 0.403 0.31 0.985 1.92 1.242 2.27 1.242 1.5 0zm-876.44-1c-0.34-0.55-1.83-0.993-3.311-0.985-2.106 0.012-2.365 0.227-1.191 0.985 1.977 1.277 5.291 1.277 4.502 0zm37.018 0c-0.34-0.55-1.379-0.993-2.31-0.985-1.458 0.014-1.485 0.15-0.191 0.985 1.959 1.266 3.284 1.266 2.501 0zm134.3 0.396c-0.33-0.332-1.2-0.368-1.92-0.079-0.8 0.319-0.56 0.556 0.61 0.604 1.05 0.043 1.64-0.193 1.31-0.525zm-163.81-1.396c-0.826-0.533-2.402-0.969-3.502-0.969-1.657 0-1.743 0.166-0.5 0.969 0.825 0.533 2.401 0.969 3.501 0.969 1.657 0 1.743-0.166 0.501-0.969zm7.003-1c-0.825-0.533-2.176-0.969-3.001-0.969-1.334 0-1.334 0.107 0 0.969 0.825 0.533 2.176 0.969 3.001 0.969 1.334 0 1.334-0.107 0-0.969zm7.733-0.604c-0.332-0.332-1.196-0.368-1.918-0.079-0.797 0.319-0.56 0.556 0.605 0.604 1.055 0.043 1.645-0.193 1.313-0.525zm-29.744-1.396c-0.825-0.533-2.176-0.969-3.001-0.969-1.334 0-1.334 0.107 0 0.969 0.825 0.533 2.176 0.969 3.001 0.969 1.334 0 1.334-0.107 0-0.969zm7.004-1c-1.959-1.266-3.284-1.266-2.502 0 0.341 0.55 1.38 0.993 2.311 0.985 1.457-0.014 1.484-0.15 0.191-0.985zm7.732-0.604c-0.332-0.332-1.195-0.368-1.917-0.079-0.798 0.319-0.561 0.556 0.605 0.604 1.054 0.043 1.645-0.193 1.312-0.525zm-22.24-2.396c-0.34-0.55-1.379-0.993-2.31-0.985-1.457 0.014-1.484 0.15-0.191 0.985 1.959 1.266 3.284 1.266 2.501 0zm-6.503-3.393c0-0.216-0.698-0.661-1.553-0.989-0.89-0.341-1.291-0.173-0.941 0.393 0.587 0.951 2.494 1.406 2.494 0.596zm-782.66-1.211c-0.3325-0.332-1.1954-0.368-1.9177-0.079-0.7981 0.319-0.5611 0.556 0.6045 0.604 1.0546 0.043 1.6456-0.193 1.3132-0.525zm-31.745-1.396c-0.8254-0.533-1.9509-0.969-2.5012-0.969s-0.3252 0.436 0.5002 0.969c0.8255 0.533 1.951 0.969 2.5013 0.969s0.3252-0.436-0.5003-0.969zm40.749 0.396c-0.3325-0.332-1.1954-0.368-1.9177-0.079-0.7981 0.319-0.5611 0.556 0.6045 0.604 1.0546 0.043 1.6456-0.193 1.3132-0.525zm10.546-1.052c-0.678-0.274-2.028-0.291-3.002-0.037-0.9734 0.253-0.4192 0.478 1.232 0.498 1.65 0.02 2.447-0.187 1.77-0.461zm22.992-3.05c-1.238-0.238-3.265-0.238-4.502 0-1.238 0.239-0.225 0.434 2.251 0.434s3.489-0.195 2.251-0.434zm1575.8-0.998c-1.23-0.237-3.48-0.243-5-0.014-1.52 0.23-0.51 0.425 2.24 0.432s3.99-0.181 2.76-0.418zm-530.78-2.985c-0.96-0.252-2.54-0.252-3.5 0-0.96 0.251-0.17 0.457 1.75 0.457s2.71-0.206 1.75-0.457zm496.25-5c-0.96-0.252-2.54-0.252-3.5 0-0.96 0.251-0.17 0.457 1.75 0.457s2.71-0.206 1.75-0.457zm-852.42-1c-0.963-0.252-2.54-0.252-3.502 0-0.963 0.251-0.175 0.457 1.751 0.457s2.713-0.206 1.751-0.457zm-45.523-13.973c-0.688-0.278-1.813-0.278-2.501 0-0.689 0.277-0.125 0.504 1.25 0.504 1.376 0 1.939-0.227 1.251-0.504z" fill="#cfcecf"/>
</svg>
