<?xml version="1.0" encoding="UTF-8" standalone="no"?>
<!-- Created with Keyshape -->
<svg xmlns="http://www.w3.org/2000/svg" xmlns:xlink="http://www.w3.org/1999/xlink" width="336" height="340" viewBox="0 0 336 340" text-rendering="geometricPrecision" shape-rendering="geometricPrecision" style="white-space: pre;">
    <defs>
        <linearGradient id="Gradient-0" x1="0" y1="0" x2="1" y2="0" gradientUnits="userSpaceOnUse" gradientTransform="matrix(526.54 -306.7 -306.7 -526.54 909.92 1166.3)">
            <stop offset="0" stop-color="#b79662"/>
            <stop offset="0.082636" stop-color="#ead398"/>
            <stop offset="0.086022" stop-color="#ead398"/>
            <stop offset="0.2478" stop-color="#b79662"/>
            <stop offset="0.52338" stop-color="#b79662"/>
            <stop offset="0.75101" stop-color="#b79662"/>
            <stop offset="1" stop-color="#fad792"/>
        </linearGradient>
        <linearGradient id="Gradient-1" x1="0" y1="0" x2="1" y2="0" gradientUnits="userSpaceOnUse" gradientTransform="matrix(526.54 -306.7 -306.7 -526.54 827.31 1024.4)">
            <stop offset="0" stop-color="#b79662"/>
            <stop offset="0.082636" stop-color="#ead398"/>
            <stop offset="0.086022" stop-color="#ead398"/>
            <stop offset="0.2478" stop-color="#b79662"/>
            <stop offset="0.52338" stop-color="#b79662"/>
            <stop offset="0.75101" stop-color="#b79662"/>
            <stop offset="1" stop-color="#fad792"/>
        </linearGradient>
        <linearGradient id="Gradient-2" x1="0" y1="0" x2="1" y2="0" gradientUnits="userSpaceOnUse" gradientTransform="matrix(526.54 -306.7 -306.7 -526.54 845.83 1056.2)">
            <stop offset="0" stop-color="#b79662"/>
            <stop offset="0.082636" stop-color="#ead398"/>
            <stop offset="0.086022" stop-color="#ead398"/>
            <stop offset="0.2478" stop-color="#b79662"/>
            <stop offset="0.52338" stop-color="#b79662"/>
            <stop offset="0.75101" stop-color="#b79662"/>
            <stop offset="1" stop-color="#fad792"/>
        </linearGradient>
    </defs>
    <path id="Line" d="M790.06,1238.5L790.06,1098.79L793.995,1098.79L793.995,1234.56L1038.78,1234.56L1038.78,989.77L962.83,989.77L962.83,985.834L1042.72,985.834L1042.72,1238.49Z" fill="url(#Gradient-0)" transform="translate(-1052.69,1651.3) rotate(180) scale(-1.3333,1.3333)"/>
    <path id="D" d="M791.02,1083.1C790.441,1083.1,789.967,1082.89,789.596,1082.48C789.224,1082.07,789.039,1081.57,789.039,1081L789.039,986.06C789.039,985.565,789.203,985.111,789.534,984.698C789.863,984.284,790.318,984.08,790.896,984.08C792.215,984.08,792.876,984.739,792.876,986.062L792.876,1079.26L801.416,1079.26L801.416,986.31C801.416,985.732,801.603,985.237,801.974,984.822C802.344,984.409,802.819,984.203,803.397,984.203L819.611,984.328C826.376,984.409,832.771,985.729,838.797,988.288C844.819,990.845,850.06,994.353,854.516,998.81C858.972,1003.26,862.499,1008.48,865.099,1014.47C867.698,1020.45,868.998,1026.86,868.998,1033.71C868.998,1040.48,867.698,1046.88,865.099,1052.9C862.499,1058.92,858.972,1064.16,854.516,1068.62C850.06,1073.07,844.819,1076.6,838.797,1079.2C832.771,1081.8,826.376,1083.1,819.611,1083.1ZM805.254,1079.26C807.646,1079.26,810.038,1079.28,812.432,1079.32C814.825,1079.36,817.217,1079.39,819.611,1079.39C825.882,1079.39,831.803,1078.19,837.373,1075.79C842.943,1073.39,847.77,1070.15,851.855,1066.06C855.939,1061.97,859.177,1057.14,861.571,1051.56C863.964,1045.98,865.161,1040.06,865.161,1033.78C865.161,1027.49,863.964,1021.61,861.571,1016.11C859.177,1010.62,855.918,1005.83,851.793,1001.73C847.666,997.645,842.839,994.401,837.311,992.006C831.782,989.609,825.882,988.37,819.611,988.288C817.217,988.205,814.825,988.164,812.432,988.164L805.254,988.164Z" fill="url(#Gradient-1)" transform="translate(-1052.69,1651.3) rotate(180) scale(-1.3333,1.3333)"/>
    <path id="A" d="M901.18,1082C900.849,1081.09,900.067,1079.05,898.828,1075.87C897.591,1072.7,896.084,1068.78,894.31,1064.11C892.535,1059.45,890.555,1054.32,888.369,1048.7C886.182,1043.09,883.995,1037.42,881.809,1031.68C879.622,1025.95,877.477,1020.36,875.373,1014.91C873.269,1009.47,871.412,1004.64,869.803,1000.43C868.194,996.223,866.894,992.799,865.904,990.158C864.914,987.517,864.419,986.155,864.419,986.074C864.419,985.084,864.831,984.465,865.657,984.217C865.822,984.217,865.924,984.196,865.966,984.156C866.007,984.113,866.109,984.094,866.276,984.094C867.182,984.094,867.801,984.506,868.133,985.331L896.971,1060.34L926.678,985.331C927.007,984.506,927.585,984.094,928.41,984.094C928.575,984.094,928.699,984.113,928.782,984.156C928.863,984.196,928.987,984.217,929.154,984.217C929.977,984.465,930.391,985.042,930.391,985.95C930.391,986.031,929.977,987.167,929.154,989.355C928.327,991.54,927.235,994.407,925.873,997.956C924.511,1001.5,922.944,1005.55,921.17,1010.09C919.395,1014.62,917.559,1019.29,915.662,1024.07C913.763,1028.86,911.906,1033.58,910.093,1038.25C908.275,1042.91,906.583,1047.16,905.017,1050.99C903.449,1054.83,902.127,1058.07,901.056,1060.71C899.983,1063.35,899.281,1065,898.952,1065.66L903.036,1076.18L939.055,985.331C939.303,984.506,939.922,984.094,940.911,984.094C941.407,984.094,941.84,984.28,942.212,984.651C942.583,985.022,942.769,985.455,942.769,985.95C942.769,986.031,942.252,987.393,941.221,990.035C940.189,992.675,938.848,996.119,937.199,1000.37C935.547,1004.62,933.628,1009.47,931.443,1014.91C929.256,1020.36,927.028,1025.95,924.759,1031.68C922.489,1037.42,920.22,1043.09,917.951,1048.7C915.681,1054.32,913.639,1059.45,911.825,1064.11C910.009,1068.78,908.462,1072.7,907.183,1075.87C905.903,1079.05,905.098,1081.09,904.77,1082C904.522,1082.74,903.944,1083.11,903.036,1083.11C902.127,1083.11,901.508,1082.74,901.18,1082" fill="url(#Gradient-2)" transform="translate(-1052.69,1651.3) rotate(180) scale(-1.3333,1.3333)"/>
</svg>
