<?xml version="1.0" encoding="UTF-8" standalone="no"?>
<!-- Created with Keyshape -->
<svg xmlns="http://www.w3.org/2000/svg" xmlns:xlink="http://www.w3.org/1999/xlink" id="Capa_1" x="0px" y="0px" viewBox="0 0 1950 1950" style="white-space: preserve-spaces;">
    <path id="cloud" d="M1549.16,627.584C1523.03,380.442,1295.92,186.5,1016.25,186.5C799.898,186.5,614.69,302.866,529.26,469.83C503.553,462.462,476.77,457.37,448.373,457.37C299.812,457.37,179.349,566.584,179.349,701.152C179.349,727.914,185.268,753.214,194.056,777.212C78.4952,838.266,0,950.298,0,1080.26C0,1274.74,173.969,1432.4,388.59,1432.4L388.59,1432.5L1464.63,1432.5L1464.63,1432.4C1712.31,1432.4,1913,1250.53,1913,1026.09C1913,827.974,1756.31,663.502,1549.16,627.584ZM1464.63,1323.99L1464.63,1324.16L388.59,1324.16C240.268,1323.99,119.566,1214.67,119.566,1080.26C119.566,993.583,169.963,915.302,254.317,870.77C336.28,828.136,341.899,819.684,307.524,743.082C301.725,727.318,298.915,713.612,298.915,701.206C298.915,626.5,365.932,565.772,448.373,565.772C448.373,565.772,487.591,563.226,529.26,578.232C597.831,602.989,605.304,579.315,637.706,515.444C706.277,381.472,854.838,294.848,1016.25,294.848C1231.47,294.848,1409.39,442.364,1430.19,637.986C1437.54,715.562,1437.54,715.562,1526.74,734.036C1681.34,760.798,1793.43,883.664,1793.43,1026.09C1793.43,1190.39,1645.95,1323.99,1464.63,1323.99Z" fill="#868686" transform="translate(19,149)"/>
    <path d="M547.602,250.6C538.611,116.565,429.251,9.4154,292.405,0.6086L292.405,0L274.13,0L255.855,0L255.855,0.6086C119.009,9.4154,9.61283,116.565,0.621361,250.6L0,250.6L0,268.5L0,286.4L0.621361,286.4C9.61283,420.435,119.009,527.549,255.855,536.356L255.855,537L274.13,537L292.405,537L292.405,536.356C429.251,527.549,538.611,420.435,547.602,286.4L548.26,286.4L548.26,268.5L548.26,250.6L547.602,250.6ZM171.605,58.533C153.951,81.5166,139.295,110.336,128.622,143.2L73.8689,143.2C97.6999,106.791,131.546,77.328,171.605,58.533ZM54.7529,179L119.009,179C114.111,201.626,111.004,225.647,110.018,250.6L37.2451,250.6C39.1823,225.397,45.2497,201.303,54.7529,179ZM37.2451,286.4L110.018,286.4C111.004,311.353,114.111,335.374,119.009,358L54.7529,358C45.2497,335.697,39.1823,311.603,37.2451,286.4ZM73.8689,393.8L128.585,393.8C139.258,426.664,153.915,455.483,171.605,478.467C131.546,459.672,97.6999,430.244,73.8689,393.8ZM255.855,498.909C218.281,489.064,185.933,449.541,166.306,393.8L255.855,393.8L255.855,498.909ZM255.855,358L156.035,358C150.881,335.697,147.628,311.603,146.568,286.4L255.855,286.4L255.855,358ZM255.855,250.6L146.568,250.6C147.628,225.397,150.881,201.303,156.035,179L255.855,179L255.855,250.6ZM255.855,143.2L166.306,143.2C185.933,87.4594,218.281,47.9362,255.855,38.127L255.855,143.2ZM474.391,143.2L419.711,143.2C409.002,110.336,394.382,81.5166,376.655,58.533C416.678,77.328,450.56,106.791,474.391,143.2ZM292.405,38.127C329.943,47.9362,362.327,87.4594,381.954,143.2L292.405,143.2L292.405,38.127ZM292.405,179L392.189,179C397.379,201.303,400.559,225.397,401.692,250.6L292.405,250.6L292.405,179ZM292.405,286.4L401.692,286.4C400.632,311.603,397.379,335.697,392.189,358L292.405,358L292.405,286.4ZM292.405,498.909L292.405,393.8L381.954,393.8C362.327,449.541,329.943,489.064,292.405,498.909ZM376.655,478.467C394.309,455.448,409.002,426.664,419.711,393.8L474.391,393.8C450.56,430.244,416.678,459.672,376.655,478.467ZM493.507,358L429.251,358C434.149,335.374,437.256,311.353,438.242,286.4L510.978,286.4C509.078,311.603,503.01,335.697,493.507,358ZM438.242,250.6C437.256,225.647,434.149,201.626,429.251,179L493.507,179C503.01,201.303,509.078,225.397,511.015,250.6L438.242,250.6Z" fill="#868686" transform="translate(700.87,776.584)"/>
</svg>
