<?xml version="1.0" encoding="UTF-8" standalone="no"?>
<!-- Created with Keyshape -->
<svg xmlns="http://www.w3.org/2000/svg" xmlns:xlink="http://www.w3.org/1999/xlink" id="svg165" width="341.333" height="256" viewBox="0 0 341.33334 256">
    <metadata id="metadata171"/>
    <path id="path179" d="M34.6667,253.821C33.5667,253.458,30.1266,252.254,27.0221,251.145L21.3774,249.13L26.4814,243.565C29.2886,240.504,34.8287,234.348,38.7927,229.885C46.6341,221.055,54.6737,212.047,83.3333,179.975C87,175.872,94.8,167.173,100.667,160.646C106.533,154.118,114.568,145.152,118.521,140.722C122.474,136.291,126.492,131.821,127.449,130.787C128.934,129.182,129.835,129.407,133.594,132.317C136.017,134.193,139.2,136.848,140.667,138.216C152.712,149.456,165.834,160.075,168.507,160.746C172.382,161.718,176.681,159.604,183.58,153.333C187.888,149.418,199.73,139.22,209.777,130.775C212.037,128.875,212.576,129.12,216.941,134.027C232.923,151.994,239.567,159.429,241.333,161.324C242.433,162.503,247.532,168.238,252.664,174.068C257.796,179.897,264.199,187.067,266.893,190C269.587,192.933,272.889,196.597,274.229,198.14C275.57,199.684,280.867,205.632,286,211.358C291.133,217.084,298.577,225.421,302.541,229.885C306.505,234.348,312.034,240.493,314.829,243.54L319.909,249.08L314.288,251.54C308.957,253.873,301.639,254.012,172.667,254.241C97.8667,254.373,35.7667,254.184,34.6667,253.821ZM4.255,228.391C0.28316,218.187,0.0148718,211.835,0.0148718,128C0.0148718,41.6632,0.22531,37.2914,4.90648,26.3771L7.03223,21.4208L17.1656,30.3771C22.739,35.303,27.9725,39.9333,28.7957,40.6667C34.9745,46.1711,40.626,51.0995,48.672,58C53.8024,62.4,58.3,66.319,58.6667,66.709C59.0333,67.0989,66.5333,73.6938,75.3333,81.3642C90.0029,94.1508,97.9981,101.178,101.854,104.675C102.668,105.413,105.292,107.632,107.687,109.606L112.04,113.195L107.687,118.245C105.292,121.022,102.133,124.547,100.667,126.078C99.2,127.609,93.5,133.896,88,140.049C82.5,146.203,74.7573,154.859,70.794,159.285C66.8307,163.712,61.7307,169.434,59.4607,172.001C57.1906,174.569,49.6333,182.994,42.6667,190.725C35.7,198.456,26.4,208.874,22,213.878C17.6,218.881,12.1336,225.032,9.85237,227.545L5.70475,232.116ZM332.601,228.853C331.17,227.096,325.5,220.668,320,214.568C314.5,208.468,307.3,200.46,304,196.772C296.454,188.34,297.215,189.185,285.333,176.03C279.833,169.94,274.24,163.692,272.904,162.145C271.568,160.599,261.668,149.51,250.904,137.504C240.14,125.498,231.162,114.964,230.952,114.095C230.524,112.324,231.013,111.862,260.667,86.0217C272.4,75.7972,282.3,67.1095,282.667,66.7158C283.033,66.3221,287.531,62.4,292.661,58C300.707,51.0995,306.359,46.1711,312.538,40.6667C333.942,21.5982,334.113,21.4747,335.676,23.9764C336.51,25.3121,338.124,30.0005,339.263,34.395C341.031,41.2191,341.331,54.9054,341.318,128.192C341.302,214.711,340.964,221.75,336.436,229.839C335.336,231.806,334.917,231.698,332.601,228.853ZM149.936,115.86C138.971,106.249,128.2,96.7846,126,94.8277C123.8,92.8708,107.9,79.0046,90.6667,64.0141C73.4333,49.0235,58.6725,36.1378,57.8649,35.3792C56.3646,33.9701,34.4564,14.8758,27.4598,8.87936L23.5862,5.55953L30.7018,3.44643C36.9881,1.5796,53.3003,1.33333,170.667,1.33333C288.033,1.33333,304.345,1.5796,310.632,3.44643L317.747,5.55953L313.874,8.87866C311.743,10.7042,308.198,13.8033,305.995,15.7656C303.792,17.7278,297.792,22.9333,292.661,27.3333C287.531,31.7333,283.033,35.6524,282.667,36.0423C282.3,36.4322,274.8,43.0132,266,50.6667C257.2,58.3201,249.7,64.9027,249.333,65.2947C248.967,65.6867,242.667,71.182,235.333,77.5066C222.349,88.7052,219.678,91.0302,211.297,98.4342C209.077,100.395,202.477,106.2,196.63,111.333C190.784,116.466,185.235,121.388,184.3,122.271C181.044,125.346,171.054,133.333,170.466,133.333C170.139,133.333,160.901,125.47,149.936,115.86Z" fill="#868686" stroke-width="1.33333"/>
</svg>
