<?xml version="1.0" encoding="UTF-8" standalone="no"?>
<!-- Created with Keyshape -->
<svg xmlns="http://www.w3.org/2000/svg" xmlns:xlink="http://www.w3.org/1999/xlink" id="Capa_1" x="0px" y="0px" width="547.597px" height="547.597px" viewBox="0 0 547.597 547.597" style="white-space: preserve-spaces;">
    <path d="M409.997,0L137.599,0C123.628,0,112.335,11.312,112.335,25.264L112.335,522.323C112.335,536.284,123.638,547.596,137.599,547.596L409.996,547.596C423.948,547.596,435.261,536.284,435.261,522.323L435.261,25.264C435.27,11.303,423.949,0,409.997,0ZM245.885,29.816L301.692,29.816C304.609,29.816,306.961,32.169,306.961,35.085C306.961,38.001,304.609,40.354,301.692,40.354L245.885,40.354C242.988,40.354,240.616,38.001,240.616,35.085C240.616,32.169,242.988,29.816,245.885,29.816ZM307.497,502.653L240.09,502.653C234.563,502.653,230.078,498.177,230.078,492.65C230.078,487.124,234.563,482.648,240.09,482.648L307.496,482.648C313.022,482.648,317.488,487.124,317.488,492.65C317.489,498.178,313.033,502.653,307.497,502.653ZM403.685,443.69L143.911,443.69L143.911,85.642L403.685,85.642L403.685,443.69Z" fill="#7e7e7e"/>
</svg>
