<?xml version="1.0" encoding="UTF-8" standalone="no"?>
<!-- Created with Keyshape -->
<svg xmlns="http://www.w3.org/2000/svg" xmlns:xlink="http://www.w3.org/1999/xlink" id="svg77" width="1280" height="708" viewBox="0 0 1280 708">
    <metadata id="metadata83"/>
    <g id="g105">
        <path id="path119" d="M805.988,621.488L726.506,542.002L711.012,557.496L695.518,572.99L709.005,586.745C716.422,594.31,738.377,616.499,757.793,636.052C792.678,671.186,793.071,671.626,791.072,673.435C789.077,675.24,788.398,674.606,740.275,625.999L691.5,576.733L675.065,593.367C666.025,602.515,658.093,610,657.437,610C656.781,610,655.661,609.296,654.947,608.436C653.826,607.086,655.955,604.564,670.566,589.933L687.484,572.994L652.495,537.995L617.507,502.996L534.101,587.068L450.695,671.14L448.616,669.061L446.538,666.982L465.015,648.241C475.178,637.934,512.742,600.138,548.492,564.251L613.492,499.003L602.27,487.781L591.049,476.56L587.733,479.774C584.643,482.769,584.304,482.875,582.756,481.328C581.209,479.78,581.295,479.416,584.016,475.98L586.936,472.293L578.087,462.865C573.22,457.679,567.118,451.699,564.528,449.576L559.817,445.716L548.909,456.591C542.909,462.572,538,467.748,538,468.092C538,468.437,539.794,470.757,541.987,473.248C545.149,476.84,545.703,478.001,544.668,478.861C543.673,479.687,542.31,478.872,538.941,475.439L534.519,470.934L448.51,557.311C365.545,640.629,362.366,643.691,358.71,643.788L354.921,643.888L357.849,640.194C359.459,638.162,398.627,598.406,444.888,551.847C491.15,505.288,529,466.807,529,466.334C529,465.861,522.582,459.068,514.738,451.237L500.475,437L485.235,452.265L469.994,467.53L480.445,477.945C486.193,483.673,490.624,488.799,490.293,489.335C489.962,489.871,490.16,490.019,490.732,489.666C491.305,489.312,492.285,489.639,492.911,490.393C493.844,491.517,493.37,491.73,490.275,491.573C487.825,491.449,486.596,490.938,486.775,490.117C486.926,489.421,486.669,489.087,486.204,489.374C485.738,489.662,481.121,485.642,475.942,480.442L466.526,470.987L439.274,498.226L412.021,525.465L409.891,523.335L407.76,521.205L434.748,493.886L461.735,466.568L286.044,290.034C101.138,104.241,93.3368,96.3299,94.1926,95.4741C94.4878,95.1788,95.8028,94.7135,97.1147,94.44C99.1837,94.0086,113.191,107.706,202.732,197.721C259.509,254.8,341.859,337.788,385.732,382.141L465.5,462.782L480.25,448.153C488.363,440.108,495,433.07,495,432.514C495,431.958,440.418,376.827,373.707,310.002C306.996,243.176,210.359,146.2,158.957,94.5C67.0337,2.04258,65.556,0.494656,68.9149,0.174344C73.1045,-0.225193,57.5066,-15.6299,273.271,202C362.425,291.925,449.68,379.899,467.17,397.498L498.97,429.496L509.985,418.515C516.043,412.476,521,407.142,521,406.662C521,406.183,459.683,344.075,384.739,268.645C234.928,117.862,230,112.851,230,111.31C230,110.724,230.684,109.677,231.521,108.983C232.82,107.905,248.491,123.271,338.736,214.11C396.868,272.625,462.66,338.843,484.941,361.263L525.451,402.027L541.169,386.331L556.888,370.636L441.304,254.301C326.157,138.405,325.728,137.958,327.602,135.888C329.477,133.816,329.852,134.181,445.165,250.155L560.848,366.5L576.848,350.5L592.847,334.5L530.387,271.5C496.035,236.85,466.074,206.329,463.808,203.675L459.688,198.85L462.918,199.175C465.701,199.455,475.182,208.54,531.59,264.979L597.034,330.457L611.744,315.748L626.454,301.038L610.977,285.292C602.465,276.631,535.258,208.898,461.63,134.773L327.759,0L332.147,0L336.535,0L374.046,37.75C394.676,58.5125,460.988,125.141,521.404,185.813L631.253,296.125L778.714,148.063C925.601,0.57711,926.191,0,930.175,0L934.174,0L875.837,58.9567C843.752,91.3828,776.579,159.135,726.565,209.517L635.63,301.121L650.316,315.807L665.002,330.493L741.329,254.171C814.182,181.323,817.806,177.863,820.918,178.174C824.092,178.491,822.693,180.006,768.439,235C737.783,266.075,702.985,301.286,691.111,313.247L669.522,334.995L683.011,348.566L696.5,362.138L877,180.978C1055.8,1.52241,1057.53,-0.178311,1061.08,0.159242C1064.65,0.499,1064.12,1.0373,882.866,183.5L701.076,366.5L712.106,377.5L723.136,388.5L864.818,246.14C1005.37,104.91,1006.51,103.795,1008.35,105.831C1010.19,107.866,1009.02,109.08,869.218,249.692C791.676,327.686,728.253,391.95,728.278,392.5C728.303,393.05,743.567,409.025,762.199,428L796.075,462.5L908.287,349.991C970.004,288.11,1073.31,184.473,1137.86,119.684C1250.55,6.57041,1255.29,1.95523,1257.1,3.5866C1259.37,5.64882,1278.39,-13.7938,1001.14,265.331L800.671,467.161L813.862,480.331L827.052,493.5L963.2,356.5C1038.08,281.15,1140.02,178.775,1189.72,129L1280.09,38.5L1279.79,42.7105C1279.5,46.8491,1277.89,48.5454,1185.05,142.21C1133.1,194.62,1032.33,296.137,961.119,367.804L831.643,498.108L842.049,508.549L852.454,518.99L850.222,521.222L847.99,523.454L837.488,512.988L826.986,502.522L812.327,517.181L797.668,531.84L848.177,583.17C875.956,611.402,900.613,636.638,902.97,639.25L907.255,644L903.88,644C900.746,644,895.575,639.07,831.495,574.995L762.486,505.991L746.775,521.745L731.064,537.5L810.187,617.317C888.212,696.027,889.283,697.161,887.39,699.055C885.497,700.948,884.367,699.871,805.988,621.488ZM706.845,552.655L722.167,537.31L687.651,502.405L653.135,467.5L637.322,483.249L621.509,498.999L655.999,533.499C674.969,552.475,690.722,568,691.007,568C691.291,568,698.419,561.095,706.845,552.655ZM730.02,473.068C714.694,457.356,699.191,441.584,695.568,438.02L688.983,431.541L672.988,447.512L656.994,463.483L691.738,498.238L726.483,532.994L742.185,517.315L757.886,501.637ZM820.137,500.751L822.135,498.002L814.821,490.006C810.798,485.609,804.865,479.685,801.637,476.844L795.767,471.677L781.466,486.589L767.164,501.5L780.318,514.75L793.472,527.999L805.805,515.75C812.588,509.012,819.038,502.263,820.137,500.751ZM788.153,470.752L791.165,467.004L757.365,432.502C738.774,413.526,723.1,398.002,722.532,398.004C721.393,398.009,694.5,425.904,694.5,427.081C694.5,427.485,709.761,443.414,728.414,462.478L762.327,497.141L773.734,485.82C780.008,479.594,786.496,472.813,788.153,470.752ZM633.238,479.263C641.357,471.157,648,464.077,648,463.529C648,462.981,643.169,457.687,637.264,451.764L626.529,440.995L611.264,456.235C602.869,464.618,596,471.924,596,472.471C596,473.779,616.166,494,617.47,494C618.023,494,625.119,487.368,633.238,479.263ZM607.004,452.496L622.483,436.992L608.983,423.492L595.483,409.992L580.072,425.428L564.66,440.864L577.454,454.432C584.49,461.894,590.535,468,590.886,468C591.237,468,598.49,461.023,607.004,452.496ZM544.171,451.928C549.852,445.839,554.614,440.547,554.753,440.169C554.893,439.79,548.586,433.072,540.739,425.238L526.471,410.996L515,422.5L503.529,434.003L518.002,448.502C525.962,456.476,532.782,463,533.158,463C533.534,463,538.49,458.018,544.171,451.928ZM673.487,415.998L662.483,404.994L646.782,420.747L631.082,436.5L641.708,447.829L652.334,459.158L668.412,443.08L684.491,427.002ZM576.528,390.818C568.923,382.943,562.426,376.386,562.091,376.247C561.756,376.108,554.517,382.97,546.003,391.497L530.525,406.999L545.004,421.504L559.483,436.009L574.92,420.572L590.356,405.136ZM643.004,416.496L658.483,400.992L644.741,387.25L630.999,373.509L615.259,389.249L599.518,404.99L612.995,418.495C620.407,425.923,626.709,432,626.998,432C627.288,432,634.49,425.023,643.004,416.496ZM703.998,407.502L718.47,393.004L707.5,382L696.529,370.995L681.767,385.733L667.004,400.471L677.735,411.236C683.637,417.156,688.704,422,688.996,422C689.287,422,696.038,415.476,703.998,407.502ZM610.921,384.579L626.317,369.159L612.49,354.579C604.885,346.561,598.157,340,597.539,340C596.922,340,589.48,346.989,581.002,355.531L565.587,371.061L580.031,385.531C587.975,393.489,594.71,400,594.999,400C595.288,400,602.453,393.061,610.921,384.579ZM677.967,381.324L692.138,366.647L678.569,353.078L665,339.509L650.259,354.25L635.518,368.99L648.995,382.495C656.408,389.923,662.77,396,663.134,396C663.498,396,670.173,389.396,677.967,381.324ZM646.004,349.496L660.483,334.991L645.741,320.25L631,305.508L616.259,320.25L601.517,334.991L615.996,349.496C623.959,357.473,630.711,364,631,364C631.289,364,638.041,357.473,646.004,349.496ZM803.004,392.505C802.008,391.305,802.058,390.56,803.259,388.727C804.562,386.739,1098.81,90.3172,1151.21,38.2051C1169.68,19.8291,1170.69,18.9972,1172.26,20.7389C1174.17,22.8434,1181.8,14.7389,1100.49,96.9485C978.4,220.389,805.708,394,805.012,394C804.59,394,803.687,393.327,803.004,392.505ZM153.998,219.265C104.772,169.894,49.9548,114.843,32.1819,96.9281L-0.1324,64.3562L0.1838,60.12L0.5,55.8838L116.535,173.192C180.355,237.711,235.174,293.274,238.355,296.664C243.215,301.842,244.088,303.323,243.82,305.929C243.516,308.873,238.955,304.472,153.998,219.265ZM1174.69,18.209C1173.12,16.4739,1173.21,16.1863,1176.33,13.1601C1179.52,10.0684,1179.71,10.0184,1181.31,11.791C1182.88,13.5261,1182.79,13.8137,1179.67,16.8399C1176.48,19.9316,1176.29,19.9817,1174.69,18.209Z" fill="#f3f3f3"/>
    </g>
</svg>
