<?xml version="1.0" encoding="UTF-8" standalone="no"?>
<!-- Created with Keyshape -->
<svg xmlns="http://www.w3.org/2000/svg" xmlns:xlink="http://www.w3.org/1999/xlink" width="800" height="400" viewBox="0 0 800 400" text-rendering="geometricPrecision" shape-rendering="geometricPrecision" style="white-space: pre;">
    <path fill="#b4b4b4" stroke="none" stroke-dasharray="2781.2199999999998 2781.2199999999998" stroke-dashoffset="1390.6099999999999" stroke-width="5" d="M12.8,-6.72L29.28,-6.72L29.28,-48.96L50.4,-48.96C72,-48.96,86.4,-60.8,86.4,-83.36C86.4,-104.48,74.08,-116.32,48.96,-116.32L12.8,-116.32ZM29.28,-61.92L29.28,-102.88L47.52,-102.88C63.2,-102.88,68.96,-96.96,68.96,-82.08C68.96,-68.64,63.04,-61.92,47.2,-61.92ZM101.919,-6.72L117.599,-6.72L117.599,-69.12C123.199,-72.8,130.719,-75.04,138.399,-75.04C139.999,-75.04,142.719,-74.88,144.799,-74.56L144.799,-88.64C143.999,-89.12,141.599,-89.28,139.679,-89.28C130.879,-89.28,122.559,-84.64,117.759,-79.2L117.119,-79.2L117.119,-88.32L101.919,-88.32ZM158.868,-6.72L174.548,-6.72L174.548,-88.32L158.868,-88.32ZM158.708,-103.52L174.708,-103.52L174.708,-118.88L158.708,-118.88ZM218.374,-6.72L234.374,-6.72L264.134,-88.32L248.774,-88.32L227.174,-26.4L226.694,-26.4L205.414,-88.32L188.454,-88.32ZM297.724,-5.28C308.284,-5.28,315.004,-8.8,318.844,-13.6L319.804,-13.6L321.244,-6.72L334.204,-6.72L334.204,-65.76C334.204,-82.24,323.484,-89.92,305.084,-89.92C295.004,-89.92,286.684,-88.32,279.164,-85.28L279.164,-74.24C284.124,-75.36,290.844,-76.64,298.844,-76.64C313.244,-76.64,318.364,-73.92,318.364,-61.76L318.364,-54.72L297.884,-52.32C282.044,-50.24,272.444,-43.04,272.444,-28.48C272.444,-12.64,283.004,-5.28,297.724,-5.28ZM301.884,-16.8C293.724,-16.8,288.444,-20.8,288.444,-29.12C288.444,-37.6,292.764,-41.12,301.404,-42.08L318.364,-43.84L318.364,-22.08C315.164,-19.04,308.604,-16.8,301.884,-16.8ZM388.109,-5.28C399.469,-5.28,406.989,-8.16,412.429,-11.68L412.429,-23.68C408.109,-21.6,400.909,-18.24,390.509,-18.24C374.509,-18.24,366.189,-26.56,366.189,-46.24L366.189,-50.4C366.189,-67.52,374.989,-76.64,388.909,-76.64C399.309,-76.64,404.269,-74.72,411.469,-71.68L411.469,-84.64C406.029,-87.84,399.789,-89.92,389.069,-89.92C366.989,-89.92,349.869,-76.8,349.869,-48.32L349.869,-45.6C349.869,-18.56,364.749,-5.28,388.109,-5.28ZM433.698,17.12C448.098,17.12,455.458,15.52,461.058,0.16L493.858,-88.32L478.498,-88.32L458.018,-31.2L457.698,-31.2L435.458,-88.32L418.658,-88.32L449.858,-11.2L446.338,-2.08C443.938,4.16,438.178,4.8,430.498,4.8C427.778,4.8,424.738,4.48,422.818,3.84L422.818,14.88C425.058,16,429.858,17.12,433.698,17.12Z" transform="translate(303.86,340)"/>
</svg>
