<?xml version="1.0" encoding="UTF-8" standalone="no"?>
<svg
   xmlns:dc="http://purl.org/dc/elements/1.1/"
   xmlns:cc="http://creativecommons.org/ns#"
   xmlns:rdf="http://www.w3.org/1999/02/22-rdf-syntax-ns#"
   xmlns:svg="http://www.w3.org/2000/svg"
   xmlns="http://www.w3.org/2000/svg"
   xmlns:sodipodi="http://sodipodi.sourceforge.net/DTD/sodipodi-0.dtd"
   xmlns:inkscape="http://www.inkscape.org/namespaces/inkscape"
   enable-background="new 0 0 256 256"
   height="256px"
   id="Layer_1"
   version="1.1"
   viewBox="0 0 256 256"
   width="256px"
   xml:space="preserve"
   inkscape:version="0.91 r13725"
   sodipodi:docname="team.svg"><metadata
     id="metadata17"><rdf:RDF><cc:Work
         rdf:about=""><dc:format>image/svg+xml</dc:format><dc:type
           rdf:resource="http://purl.org/dc/dcmitype/StillImage" /><dc:title /></cc:Work></rdf:RDF></metadata><defs
     id="defs15" /><sodipodi:namedview
     pagecolor="#ffffff"
     bordercolor="#666666"
     borderopacity="1"
     objecttolerance="10"
     gridtolerance="10"
     guidetolerance="10"
     inkscape:pageopacity="0"
     inkscape:pageshadow="2"
     inkscape:window-width="1920"
     inkscape:window-height="955"
     id="namedview13"
     showgrid="false"
     inkscape:zoom="0.921875"
     inkscape:cx="-43.932203"
     inkscape:cy="128"
     inkscape:window-x="0"
     inkscape:window-y="0"
     inkscape:window-maximized="1"
     inkscape:current-layer="Layer_1" /><g
     id="g3"
     style="fill:#5a8ac7;fill-opacity:1"><g
       id="g5"
       style="fill:#5a8ac7;fill-opacity:1"><path
         d="M220.719,194.222C235.984,200.516,245,208.791,245,218.25c0,11.827-14.09,21.802-36.87,28.37     c-20.64,5.95-48.981,9.63-80.13,9.63s-59.49-3.68-80.129-9.63C25.09,240.052,11,230.077,11,218.25     c0-9.459,9.016-17.734,24.281-24.028c-0.353,4.424-0.678,8.849-0.946,13.276C27.103,210.963,23,214.641,23,218.25     c0,5.846,10.758,11.871,28.152,16.885c19.534,5.631,46.694,9.115,76.848,9.115c30.154,0,57.314-3.483,76.848-9.115     C222.242,230.121,233,224.096,233,218.25c0-3.609-4.103-7.287-11.335-10.753C221.397,203.07,221.071,198.646,220.719,194.222     L220.719,194.222z"
         fill="#3778A2"
         id="path7"
         style="fill:#5a8ac7;fill-opacity:1" /><path
         clip-rule="evenodd"
         d="M185.914,12.447c12.58,0,22.778,10.251,22.778,22.899     c0,12.647-10.197,22.899-22.778,22.899c-12.578,0-22.777-10.252-22.777-22.899C163.137,22.698,173.336,12.447,185.914,12.447     L185.914,12.447z M70.085,12.447c-12.58,0-22.778,10.251-22.778,22.899c0,12.647,10.198,22.899,22.778,22.899     c12.578,0,22.777-10.252,22.777-22.899C92.862,22.698,82.664,12.447,70.085,12.447L70.085,12.447z M46.092,112.013     c1.041,4.507,2.084,9.014,3.126,13.521c0.09-6.229,0.117-12.557,0.067-19.078C48.221,108.309,47.156,110.161,46.092,112.013     L46.092,112.013z M47.305,73.898l-19.725,32.15c-1.222,2.126-1.531,4.526-1.051,6.747c-0.011,0.002-0.021,0.005-0.032,0.008     c0.773,2.793,1.547,5.585,2.32,8.378c1.718,7.434,3.436,14.868,5.154,22.302c0.582,2.544,2.141,4.611,4.191,5.896     c1.302,1.031,2.947,1.645,4.736,1.645c1.031,0,2.015-0.205,2.912-0.575c1.014-0.293,1.945-0.744,2.772-1.32     c-0.762,19.878-2.934,36.366-4.313,59.773c-0.333,5.676,3.998,10.548,9.673,10.882c5.676,0.333,10.548-3.997,10.882-9.673     c1.204-20.444,3.304-37.306,4.508-57.75c0.282,0.004,0.564,0.002,0.848-0.007c0.014,0,0.03-0.001,0.044-0.002     c1.31,20.46,1.726,37.34,3.037,57.801c0.356,5.675,5.246,9.988,10.922,9.632c3.24-0.203,6.036-1.885,7.773-4.346l0.708-24.753     c-0.837-13.376-1.622-26.346-2.366-39.351c-3.299-2.238-5.969-5.443-7.525-9.355c-4.364-10.966-8.745-21.924-13.109-32.889     c-2.956-7.427-1.372-14.201,3.106-20.519L86.85,68.699C75.205,58.139,55.469,60.591,47.305,73.898L47.305,73.898z      M209.908,112.013c-1.042,4.507-2.084,9.014-3.126,13.521c-0.09-6.229-0.117-12.557-0.068-19.078     C207.779,108.309,208.844,110.161,209.908,112.013L209.908,112.013z M208.695,73.898l19.726,32.15     c1.222,2.126,1.531,4.526,1.05,6.747c0.011,0.002,0.021,0.005,0.032,0.008c-0.773,2.793-1.547,5.585-2.32,8.378     c-1.718,7.434-3.436,14.868-5.154,22.302c-0.583,2.544-2.141,4.611-4.19,5.896c-1.302,1.031-2.948,1.645-4.736,1.645     c-1.031,0-2.015-0.205-2.912-0.575c-1.014-0.293-1.945-0.744-2.771-1.32c0.762,19.878,2.933,36.366,4.313,59.773     c0.333,5.676-3.997,10.548-9.673,10.882c-5.675,0.333-10.548-3.997-10.882-9.673c-1.204-20.444-3.304-37.306-4.507-57.75     c-0.282,0.004-0.564,0.002-0.848-0.007c-0.014,0-0.03-0.001-0.044-0.002c-1.31,20.46-1.726,37.34-3.037,57.801     c-0.356,5.675-5.246,9.988-10.922,9.632c-3.248-0.204-6.05-1.894-7.786-4.366l-0.806-22.941     c0.878-13.996,1.699-27.529,2.476-41.098c3.313-2.235,6-5.45,7.572-9.4c4.364-10.965,8.744-21.924,13.108-32.889     c2.502-6.286,1.717-13.386-2.033-18.971c-0.002-0.003-0.003-0.006-0.005-0.008c-0.107-0.172-0.218-0.342-0.331-0.51     c-0.225-0.337-0.456-0.67-0.686-1.003c-0.727-1.048-1.461-2.091-2.196-3.132c-2.189-3.104-4.391-6.2-6.593-9.294     c-1.781-2.503-3.568-5.003-5.352-7.504C180.836,58.144,200.54,60.605,208.695,73.898L208.695,73.898z"
         fill="#3778A2"
         fill-rule="evenodd"
         id="path9"
         style="fill:#5a8ac7;fill-opacity:1" /><path
         d="M99.009,68.837L80.924,94.353c-2.413,3.405-3.676,6.742-1.973,11.039     c4.369,10.963,8.74,21.927,13.109,32.89c1.913,4.824,7.011,7.435,11.921,6.378l-2.287,79.963     c-0.062,13.76,21.796,13.864,21.858,0.083l3.234-69.419l2.015,0.045l3.689,69.414c0.135,13.805,21.993,13.572,21.859-0.165     l-2.814-80.05c5.067,1.369,10.467-1.253,12.448-6.25c4.369-10.963,8.74-21.926,13.109-32.89c1.355-3.417,0.785-7.122-1.194-9.917     c0.018-0.013-17.388-24.557-18.976-26.798c-7.719-10.892-18.714-13.078-28.808-13.131C118.02,55.494,106.77,57.886,99.009,68.837     L99.009,68.837z M128.021-0.25c-14.245,0-25.792,11.609-25.792,25.93c0,14.322,11.547,25.93,25.792,25.93     c14.244,0,25.792-11.608,25.792-25.93C153.813,11.359,142.265-0.25,128.021-0.25L128.021-0.25z M149.122,119.023     c0-8.367,0-16.734,0-25.101c2.135,3.012,4.268,6.024,6.403,9.035C153.391,108.313,151.257,113.668,149.122,119.023     L149.122,119.023z M106.921,93.924c0,8.366,0,16.731,0,25.096c-2.134-5.354-4.269-10.708-6.402-16.062     C102.652,99.947,104.787,96.935,106.921,93.924L106.921,93.924z"
         fill="#3778A2"
         id="path11"
         style="fill:#5a8ac7;fill-opacity:1" /></g></g></svg>